<?xml version="1.0" encoding="utf-8"?>
<!-- Generator: Adobe Illustrator 17.1.0, SVG Export Plug-In . SVG Version: 6.00 Build 0)  -->
<!DOCTYPE svg PUBLIC "-//W3C//DTD SVG 1.1//EN" "http://www.w3.org/Graphics/SVG/1.1/DTD/svg11.dtd">
<svg version="1.1" id="Layer_1" xmlns="http://www.w3.org/2000/svg" xmlns:xlink="http://www.w3.org/1999/xlink" x="0px" y="0px"
	 viewBox="0 0 1000 1000" enable-background="new 0 0 1000 1000" xml:space="preserve">
<g>
	<g>
		<path fill="#010101" d="M36.8,251.6C12.3,276.2,0,305.6,0,339.8v464.3c0,34.2,12.3,63.6,36.8,88.2c24.6,24.6,53.9,36.8,88.2,36.8
			h17.9V214.8H125C90.8,214.8,61.4,227.1,36.8,251.6z"/>
		<path fill="#010101" d="M714.3,125.5c0-14.9-5.2-27.5-15.6-37.9c-10.4-10.4-23.1-15.6-37.9-15.6H339.3c-14.9,0-27.5,5.2-37.9,15.6
			c-10.4,10.4-15.6,23.1-15.6,37.9v89.3h-89.3v714.3h607.1V214.8h-89.3L714.3,125.5L714.3,125.5z M357.1,143.4h285.7v71.4H357.1
			V143.4z M714.3,625.5c0,5.2-1.7,9.5-5,12.8c-3.3,3.3-7.6,5-12.8,5h-125v125c0,5.2-1.7,9.5-5,12.8c-3.3,3.3-7.6,5-12.8,5H446.4
			c-5.2,0-9.5-1.7-12.8-5c-3.3-3.3-5-7.6-5-12.8v-125h-125c-5.2,0-9.5-1.7-12.8-5c-3.4-3.4-5-7.6-5-12.8V518.4c0-5.2,1.7-9.5,5-12.8
			c3.3-3.3,7.6-5,12.8-5h125v-125c0-5.2,1.7-9.5,5-12.8c3.3-3.3,7.6-5,12.8-5h107.1c5.2,0,9.5,1.7,12.8,5c3.3,3.4,5,7.6,5,12.8v125
			h125c5.2,0,9.5,1.7,12.8,5c3.3,3.3,5,7.6,5,12.8L714.3,625.5L714.3,625.5L714.3,625.5z"/>
		<path fill="#010101" d="M963.2,251.6c-24.6-24.6-53.9-36.8-88.2-36.8h-17.9v714.3H875c34.2,0,63.6-12.3,88.2-36.8
			c24.5-24.6,36.8-53.9,36.8-88.2V339.8C1000,305.6,987.7,276.2,963.2,251.6z"/>
	</g>
</g>
</svg>
