<svg xmlns="http://www.w3.org/2000/svg" viewBox="0 0 1000 1000"><path d="M36.8 251.6C12.3 276.2 0 305.6 0 339.8v464.3c0 34.2 12.3 63.6 36.8 88.2 24.6 24.6 53.9 36.8 88.2 36.8h17.9V214.8H125c-34.2 0-63.6 12.3-88.2 36.8zm677.5-126.1c0-14.9-5.2-27.5-15.6-37.9C688.3 77.2 675.6 72 660.8 72H339.3c-14.9 0-27.5 5.2-37.9 15.6-10.4 10.4-15.6 23.1-15.6 37.9v89.3h-89.3v714.3h607.1V214.8h-89.3v-89.3zm-357.2 17.9h285.7v71.4H357.1v-71.4zm357.2 482.1c0 5.2-1.7 9.5-5 12.8-3.3 3.3-7.6 5-12.8 5h-125v125c0 5.2-1.7 9.5-5 12.8-3.3 3.3-7.6 5-12.8 5H446.4c-5.2 0-9.5-1.7-12.8-5-3.3-3.3-5-7.6-5-12.8v-125h-125c-5.2 0-9.5-1.7-12.8-5-3.4-3.4-5-7.6-5-12.8V518.4c0-5.2 1.7-9.5 5-12.8 3.3-3.3 7.6-5 12.8-5h125v-125c0-5.2 1.7-9.5 5-12.8 3.3-3.3 7.6-5 12.8-5h107.1c5.2 0 9.5 1.7 12.8 5 3.3 3.4 5 7.6 5 12.8v125h125c5.2 0 9.5 1.7 12.8 5 3.3 3.3 5 7.6 5 12.8l.2 107.1zm248.9-373.9c-24.6-24.6-53.9-36.8-88.2-36.8h-17.9v714.3H875c34.2 0 63.6-12.3 88.2-36.8 24.5-24.6 36.8-53.9 36.8-88.2V339.8c0-34.2-12.3-63.6-36.8-88.2z" fill="#010101"/></svg>