<?xml version="1.0" encoding="utf-8"?>
<!-- Generator: Adobe Illustrator 17.1.0, SVG Export Plug-In . SVG Version: 6.00 Build 0)  -->
<!DOCTYPE svg PUBLIC "-//W3C//DTD SVG 1.1//EN" "http://www.w3.org/Graphics/SVG/1.1/DTD/svg11.dtd">
<svg version="1.1" id="Layer_1" xmlns="http://www.w3.org/2000/svg" xmlns:xlink="http://www.w3.org/1999/xlink" x="0px" y="0px"
	 viewBox="0 0 1000 1000" enable-background="new 0 0 1000 1000" xml:space="preserve">
<g>
	<g id="_x31_5_38_">
		<g>
			<path fill="#010101" d="M244.4,237.8h14.3c21.7,0,39.4-17.6,39.4-39.4V89.8V49.2c0-21.7-17.6-39.4-39.4-39.4h-14.3
				c-21.7,0-39.4,17.6-39.4,39.4v40.6v108.6C205,220.2,222.6,237.8,244.4,237.8z"/>
			<path fill="#010101" d="M749.3,236.8h14.3c21.7,0,39.4-17.6,39.4-39.4v-118V48.2c0-21.7-17.6-39.4-39.4-39.4h-14.3
				c-21.7,0-39.4,17.6-39.4,39.4v31.3v118C709.9,219.2,727.6,236.8,749.3,236.8z"/>
			<path fill="#010101" d="M936,89.8H835v118c0,39.4-32,61.1-71.4,61.1h-14.3c-39.4,0-71.4-32-71.4-71.4V89.8H330v108.6
				c0,39.4-32,71.4-71.4,71.4h-14.3c-39.4,0-71.4-32-71.4-71.4V89.8H64c-35.3,0-64,28.7-64,64v773.3c0,35.3,28.7,64,64,64h872
				c35.3,0,64-28.7,64-64V153.8C1000,118.5,971.3,89.8,936,89.8z M936,927.2H64l0-584h872L936,927.2C936,927.2,936,927.2,936,927.2z
				"/>
			<path fill="#010101" d="M533,539H648c4.6,0,8.2-3.7,8.2-8.2v-99.5c0-4.6-3.7-8.2-8.2-8.2H533c-4.6,0-8.2,3.7-8.2,8.2v99.5
				C524.8,535.3,528.5,539,533,539z"/>
			<path fill="#010101" d="M720.6,539h114.9c4.6,0,8.2-3.7,8.2-8.2v-99.5c0-4.6-3.7-8.2-8.2-8.2H720.6c-4.6,0-8.2,3.7-8.2,8.2v99.5
				C712.3,535.3,716,539,720.6,539z"/>
			<path fill="#010101" d="M158,701.9h114.9c4.6,0,8.2-3.7,8.2-8.2v-99.5c0-4.6-3.7-8.2-8.2-8.2H158c-4.6,0-8.2,3.7-8.2,8.2v99.5
				C149.7,698.3,153.4,701.9,158,701.9z"/>
			<path fill="#010101" d="M345.5,701.9h114.9c4.6,0,8.2-3.7,8.2-8.2v-99.5c0-4.6-3.7-8.2-8.2-8.2H345.5c-4.6,0-8.2,3.7-8.2,8.2
				v99.5C337.3,698.3,341,701.9,345.5,701.9z"/>
			<path fill="#010101" d="M533,701.9H648c4.6,0,8.2-3.7,8.2-8.2v-99.5c0-4.6-3.7-8.2-8.2-8.2H533c-4.6,0-8.2,3.7-8.2,8.2v99.5
				C524.8,698.3,528.5,701.9,533,701.9z"/>
			<path fill="#010101" d="M720.6,701.9h114.9c4.6,0,8.2-3.7,8.2-8.2v-99.5c0-4.6-3.7-8.2-8.2-8.2H720.6c-4.6,0-8.2,3.7-8.2,8.2
				v99.5C712.3,698.3,716,701.9,720.6,701.9z"/>
			<path fill="#010101" d="M272.9,748.8H158c-4.6,0-8.2,3.7-8.2,8.2v99.5c0,4.6,3.7,8.2,8.2,8.2h114.9c4.6,0,8.2-3.7,8.2-8.2v-99.5
				C281.1,752.5,277.4,748.8,272.9,748.8z"/>
			<path fill="#010101" d="M460.4,748.8H345.5c-4.6,0-8.2,3.7-8.2,8.2v99.5c0,4.6,3.7,8.2,8.2,8.2h114.9c4.6,0,8.2-3.7,8.2-8.2
				v-99.5C468.7,752.5,465,748.8,460.4,748.8z"/>
			<path fill="#010101" d="M648,748.8H533c-4.6,0-8.2,3.7-8.2,8.2v99.5c0,4.6,3.7,8.2,8.2,8.2H648c4.6,0,8.2-3.7,8.2-8.2v-99.5
				C656.2,752.5,652.5,748.8,648,748.8z"/>
			<path fill="#010101" d="M835.5,748.8H720.6c-4.6,0-8.2,3.7-8.2,8.2v99.5c0,4.6,3.7,8.2,8.2,8.2h114.9c4.6,0,8.2-3.7,8.2-8.2
				v-99.5C843.7,752.5,840,748.8,835.5,748.8z"/>
		</g>
	</g>
</g>
</svg>
