<svg xmlns="http://www.w3.org/2000/svg" viewBox="0 0 1000 1000"><g fill="#010101"><path d="M244.4 237.8h14.3c21.7 0 39.4-17.6 39.4-39.4V49.2c0-21.7-17.6-39.4-39.4-39.4h-14.3c-21.7 0-39.4 17.6-39.4 39.4v149.2c0 21.8 17.6 39.4 39.4 39.4zm504.9-1h14.3c21.7 0 39.4-17.6 39.4-39.4V48.2c0-21.7-17.6-39.4-39.4-39.4h-14.3c-21.7 0-39.4 17.6-39.4 39.4v149.3c0 21.7 17.7 39.3 39.4 39.3z"/><path d="M936 89.8H835v118c0 39.4-32 61.1-71.4 61.1h-14.3c-39.4 0-71.4-32-71.4-71.4V89.8H330v108.6c0 39.4-32 71.4-71.4 71.4h-14.3c-39.4 0-71.4-32-71.4-71.4V89.8H64c-35.3 0-64 28.7-64 64v773.3c0 35.3 28.7 64 64 64h872c35.3 0 64-28.7 64-64V153.8c0-35.3-28.7-64-64-64zm0 837.4H64v-584h872v584z"/><path d="M533 539h115c4.6 0 8.2-3.7 8.2-8.2v-99.5c0-4.6-3.7-8.2-8.2-8.2H533c-4.6 0-8.2 3.7-8.2 8.2v99.5c0 4.5 3.7 8.2 8.2 8.2zm187.6 0h114.9c4.6 0 8.2-3.7 8.2-8.2v-99.5c0-4.6-3.7-8.2-8.2-8.2H720.6c-4.6 0-8.2 3.7-8.2 8.2v99.5c-.1 4.5 3.6 8.2 8.2 8.2zM158 701.9h114.9c4.6 0 8.2-3.7 8.2-8.2v-99.5c0-4.6-3.7-8.2-8.2-8.2H158c-4.6 0-8.2 3.7-8.2 8.2v99.5c-.1 4.6 3.6 8.2 8.2 8.2zm187.5 0h114.9c4.6 0 8.2-3.7 8.2-8.2v-99.5c0-4.6-3.7-8.2-8.2-8.2H345.5c-4.6 0-8.2 3.7-8.2 8.2v99.5c0 4.6 3.7 8.2 8.2 8.2zm187.5 0h115c4.6 0 8.2-3.7 8.2-8.2v-99.5c0-4.6-3.7-8.2-8.2-8.2H533c-4.6 0-8.2 3.7-8.2 8.2v99.5c0 4.6 3.7 8.2 8.2 8.2zm187.6 0h114.9c4.6 0 8.2-3.7 8.2-8.2v-99.5c0-4.6-3.7-8.2-8.2-8.2H720.6c-4.6 0-8.2 3.7-8.2 8.2v99.5c-.1 4.6 3.6 8.2 8.2 8.2zm-447.7 46.9H158c-4.6 0-8.2 3.7-8.2 8.2v99.5c0 4.6 3.7 8.2 8.2 8.2h114.9c4.6 0 8.2-3.7 8.2-8.2V757c0-4.5-3.7-8.2-8.2-8.2zm187.5 0H345.5c-4.6 0-8.2 3.7-8.2 8.2v99.5c0 4.6 3.7 8.2 8.2 8.2h114.9c4.6 0 8.2-3.7 8.2-8.2V757c.1-4.5-3.6-8.2-8.2-8.2zm187.6 0H533c-4.6 0-8.2 3.7-8.2 8.2v99.5c0 4.6 3.7 8.2 8.2 8.2h115c4.6 0 8.2-3.7 8.2-8.2V757c0-4.5-3.7-8.2-8.2-8.2zm187.5 0H720.6c-4.6 0-8.2 3.7-8.2 8.2v99.5c0 4.6 3.7 8.2 8.2 8.2h114.9c4.6 0 8.2-3.7 8.2-8.2V757c0-4.5-3.7-8.2-8.2-8.2z"/></g></svg>