<?xml version="1.0" encoding="utf-8"?>
<!-- Generator: Adobe Illustrator 17.1.0, SVG Export Plug-In . SVG Version: 6.00 Build 0)  -->
<!DOCTYPE svg PUBLIC "-//W3C//DTD SVG 1.1//EN" "http://www.w3.org/Graphics/SVG/1.1/DTD/svg11.dtd">
<svg version="1.1" id="Layer_1" xmlns="http://www.w3.org/2000/svg" xmlns:xlink="http://www.w3.org/1999/xlink" x="0px" y="0px"
	 viewBox="0 0 1000 1000" enable-background="new 0 0 1000 1000" xml:space="preserve">
<g>
	<g>
		<path d="M640.9,58.2c8.2,1.9,16.4,3.5,24.5,5.8c70.9,20.3,115.5,89.6,106,163c-6.7,52-30.8,95.6-62.4,135.8
			c-41.2,52.4-91.8,94.6-145.6,133.2c-18.2,13.1-36.9,25.4-55.6,37.7c-2,1.3-6.3,1.6-8.3,0.3c-62.9-40.2-122.7-84.4-174.1-139
			c-35.2-37.5-65.3-78.4-81.4-128.1c-14.1-43.7-15.3-87.3,6.9-128.9c23.7-44.3,60.8-70.7,110.7-78.4c1.4-0.2,2.7-0.9,4.1-1.4
			c10.5,0,20.9,0,31.4,0c0.9,0.4,1.8,1,2.7,1.2c27.1,3.6,50.8,14.8,71.9,32c11.7,9.5,23,19.6,34.4,29.4c-0.3,0.3,1.9-2.4,4-5
			c21.9-26.4,48.7-45,82.1-53.7c5.2-1.4,10.4-2.6,15.7-3.9C618.9,58.2,629.9,58.2,640.9,58.2z"/>
	</g>
	<g>
		<path d="M534,942.8c-2.1-4.8-6.1-9.5-6.1-14.3c0.9-67.4,1-134.8,4.1-202.1c2.1-44.5,22-82.7,57.6-109.8
			c37.3-28.4,75.9-55.2,115.7-80.1c30.1-18.8,53.6-41.3,67.5-74.4c11.4-27.1,27.1-51.8,53-67.8c8.2-5,17.5-9.4,26.8-10.9
			c15.2-2.5,27.1,7.8,26.4,23c-0.6,12.4-3,25.5-8,36.7c-9.1,20.2-21,39-31.3,58.7c-12.9,24.8-25.3,49.9-37.8,74.9
			c-0.6,1.2-0.8,2.6-1.8,5.7c4.1-2.5,6.8-4,9.3-5.7c19.1-13.3,37.8-27.3,57.5-39.7c10.6-6.7,16.9-15.1,20.9-26.6
			c5.5-15.8,11-31.8,18.7-46.5c13.4-25.6,19.8-52.9,23.2-81.2c0.7-6.1,3-12.1,3.2-18.2c0.5-14.3,0.8-28.7,0.3-43.1
			c-0.8-21.7-2.6-43.4-3.3-65.1c-0.2-4.8,2-9.9,3.8-14.6c3.4-9.2,9.6-15.4,19.9-16.2c10.1-0.8,15.9,5.9,19.1,13.6
			c6.5,15.3,12.6,31,17,47c5.7,20.9,13.1,42.3,13.2,63.5c0.2,34.1-3.8,68.3-8.3,102.2c-2.2,16.7-9.2,32.8-14.2,49.1
			c-7.3,23.6-15.8,46.9-22,70.7c-11.3,43.8-36.6,77.8-70.5,106.3c-45.7,38.5-91.5,76.8-137,115.5c-14.1,12-27.2,25.3-40.7,38
			c-11.2,10.6-15.9,24.2-16.7,39.2c-1,18.2-0.6,36.5-2.2,54.5c-0.5,6-5.6,11.5-8.6,17.2C633.1,942.8,583.5,942.8,534,942.8z"/>
	</g>
	<g>
		<path d="M324.1,942.8c-8.6-4.3-9-12.2-9.3-20.4c-0.9-20.7-0.6-41.6-3.9-61.9c-1.7-10.3-7.8-21.9-15.5-28.9
			c-38.2-34.8-77.7-68.2-116.6-102.2c-27.7-24.2-55-48.8-82.7-73c-21.6-18.9-34-43.2-42.7-69.9c-13.2-40.8-27.4-81.3-38.8-122.6
			c-5.3-19.4-5.1-40.3-7.2-60.5c-0.9-8.7-1-17.5-2.4-26.1c-7.8-46.1,10.9-87.2,24.7-129c3.6-10.9,8.9-23.5,24.5-22.2
			c11.5,0.9,21.1,12,22.3,28.7c1.3,16.6,2.9,34-0.8,49.9c-6.5,28.3-1.6,55.1,1.3,83c4.1,39.2,23.9,72.1,35.8,108
			c7.4,22.3,19.1,38.7,39.7,50.4c18.2,10.4,34.7,23.9,54.2,37.7c-1.7-4.8-2.2-7.4-3.4-9.7c-19.6-37.3-39.9-74.3-58.6-112.1
			c-7.6-15.4-14.6-32.1-17-48.8c-3.4-24.2,15.1-36.8,37.8-27.1c22,9.4,39.3,25.1,51.6,45.6c9.5,15.9,18.3,32.3,26.2,49
			c9.3,19.5,23.7,33.5,41.6,45c36.1,23.2,72.3,46.4,107.5,71c33.7,23.4,62.6,51.7,74.5,92.7c4.8,16.6,8.7,34.1,9.2,51.3
			c1.8,62.3,2.2,124.6,2.6,186.9c0,5.1-3.9,10.3-6,15.4C423.2,942.8,373.6,942.8,324.1,942.8z"/>
	</g>
</g>
</svg>
