<?xml version="1.0" encoding="utf-8"?>
<!-- Generator: Adobe Illustrator 17.1.0, SVG Export Plug-In . SVG Version: 6.00 Build 0)  -->
<!DOCTYPE svg PUBLIC "-//W3C//DTD SVG 1.1//EN" "http://www.w3.org/Graphics/SVG/1.1/DTD/svg11.dtd">
<svg version="1.1" id="Layer_1" xmlns="http://www.w3.org/2000/svg" xmlns:xlink="http://www.w3.org/1999/xlink" x="0px" y="0px"
	 viewBox="0 0 1000 1000" enable-background="new 0 0 1000 1000" xml:space="preserve">
<g>
	<path fill="#010101" d="M888.9,111.1v777.8H111.1V111.1H888.9 M888.9,0H111.1C50,0,0,50,0,111.1v777.8C0,950,50,1000,111.1,1000
		h777.8c61.1,0,111.1-50,111.1-111.1V111.1C1000,50,950,0,888.9,0z"/>
	<path fill="#010101" d="M844.7,311.5l-78.4-78.4c-9.3-9.3-24.3-9.3-33.6,0L406.2,559.7L267.3,420.8c-9.3-9.3-24.3-9.3-33.6,0
		l-78.4,78.4c-9.3,9.3-9.3,24.3,0,33.6l234.1,234.1c4.6,4.6,10.7,7,16.8,7c6.1,0,12.2-2.3,16.8-7l421.7-421.7c4.5-4.5,7-10.5,7-16.8
		C851.6,322,849.1,316,844.7,311.5z"/>
</g>
</svg>
