<svg xmlns="http://www.w3.org/2000/svg" viewBox="0 0 1000 1000"><g fill="#010101"><path d="M888.9 111.1v777.8H111.1V111.1h777.8m0-111.1H111.1C50 0 0 50 0 111.1v777.8C0 950 50 1000 111.1 1000h777.8c61.1 0 111.1-50 111.1-111.1V111.1C1000 50 950 0 888.9 0z"/><path d="M844.7 311.5l-78.4-78.4c-9.3-9.3-24.3-9.3-33.6 0L406.2 559.7 267.3 420.8c-9.3-9.3-24.3-9.3-33.6 0l-78.4 78.4c-9.3 9.3-9.3 24.3 0 33.6l234.1 234.1c4.6 4.6 10.7 7 16.8 7 6.1 0 12.2-2.3 16.8-7l421.7-421.7c4.5-4.5 7-10.5 7-16.8-.1-6.4-2.6-12.4-7-16.9z"/></g></svg>