<?xml version="1.0" encoding="utf-8"?>
<!-- Generator: Adobe Illustrator 17.1.0, SVG Export Plug-In . SVG Version: 6.00 Build 0)  -->
<!DOCTYPE svg PUBLIC "-//W3C//DTD SVG 1.1//EN" "http://www.w3.org/Graphics/SVG/1.1/DTD/svg11.dtd">
<svg version="1.1" id="Layer_1" xmlns="http://www.w3.org/2000/svg" xmlns:xlink="http://www.w3.org/1999/xlink" x="0px" y="0px"
	 viewBox="0 0 1000 1000" enable-background="new 0 0 1000 1000" xml:space="preserve">
<path d="M871.3,147.1h-19.4v-30.9c0-7.5-6.1-13.6-13.6-13.6h-76.1c-7.5,0-13.6,6.1-13.6,13.6v30.9h-67.5v-34.5
	c0-52.7-42.9-95.5-95.5-95.5H414.4c-52.7,0-95.5,42.9-95.5,95.5v34.5h-67.5v-30.9c0-7.5-6.1-13.6-13.6-13.6h-76.1
	c-7.5,0-13.6,6.1-13.6,13.6v30.9h-19.4C57.6,147.1,0,204.7,0,275.7v578.5c0,71.1,57.6,128.7,128.7,128.7h742.7
	c71.1,0,128.7-57.6,128.7-128.7V275.7C1000,204.7,942.4,147.1,871.3,147.1z M373.2,112.6c0-22.7,18.5-41.2,41.2-41.2h171.2
	c22.7,0,41.2,18.5,41.2,41.2v34.5H373.2V112.6z M500,817.6c-128,0-231.8-103.8-231.8-231.8S372,354.1,500,354.1
	s231.8,103.8,231.8,231.8S628,817.6,500,817.6z M674,642.8c0,3.6-1.4,7.1-4,9.6c-2.5,2.5-6,4-9.6,4l-89.8,0.1v89.8
	c0,7.5-6.1,13.6-13.6,13.6H442.9c-7.5,0-13.6-6.1-13.6-13.6v-89.6l-89.6,0.1h0c-3.6,0-7-1.4-9.6-4c-2.5-2.5-4-6-4-9.6L326,528.9
	c0-7.5,6.1-13.6,13.6-13.6l89.7-0.1v-89.8c0-7.5,6.1-13.6,13.6-13.6h114.2c7.5,0,13.6,6.1,13.6,13.6v89.6l89.6-0.1h0
	c7.5,0,13.6,6.1,13.6,13.6L674,642.8z"/>
</svg>
