<svg xmlns="http://www.w3.org/2000/svg" viewBox="0 0 1000 1000"><path d="M871.3 147.1h-19.4v-30.9c0-7.5-6.1-13.6-13.6-13.6h-76.1c-7.5 0-13.6 6.1-13.6 13.6v30.9h-67.5v-34.5c0-52.7-42.9-95.5-95.5-95.5H414.4c-52.7 0-95.5 42.9-95.5 95.5v34.5h-67.5v-30.9c0-7.5-6.1-13.6-13.6-13.6h-76.1c-7.5 0-13.6 6.1-13.6 13.6v30.9h-19.4C57.6 147.1 0 204.7 0 275.7v578.5c0 71.1 57.6 128.7 128.7 128.7h742.7c71.1 0 128.7-57.6 128.7-128.7V275.7c-.1-71-57.7-128.6-128.8-128.6zm-498.1-34.5c0-22.7 18.5-41.2 41.2-41.2h171.2c22.7 0 41.2 18.5 41.2 41.2v34.5H373.2v-34.5zm126.8 705c-128 0-231.8-103.8-231.8-231.8S372 354.1 500 354.1s231.8 103.8 231.8 231.8S628 817.6 500 817.6zm174-174.8c0 3.6-1.4 7.1-4 9.6-2.5 2.5-6 4-9.6 4l-89.8.1v89.8c0 7.5-6.1 13.6-13.6 13.6H442.9c-7.5 0-13.6-6.1-13.6-13.6v-89.6l-89.6.1c-3.6 0-7-1.4-9.6-4-2.5-2.5-4-6-4-9.6l-.1-114.3c0-7.5 6.1-13.6 13.6-13.6l89.7-.1v-89.8c0-7.5 6.1-13.6 13.6-13.6h114.2c7.5 0 13.6 6.1 13.6 13.6V515l89.6-.1c7.5 0 13.6 6.1 13.6 13.6l.1 114.3z"/></svg>