<svg xmlns="http://www.w3.org/2000/svg" viewBox="0 0 1000 1000"><path d="M927.9 954.2V289.4h-155v664.8h-76.6V619.8h-155v334.4h-97.6V509.7h-155v444.5h-78.9V749.9h-155v204.3H0v45.5h1000v-45.5"/><path d="M878.7.3c-36.1 0-65.4 29.3-65.4 65.4 0 12.8 3.7 24.7 10 34.8L649.5 319.8c-9.4-5.2-20.2-8.2-31.7-8.2-20.9 0-39.4 9.8-51.4 25l-140-55.1c0-.7.1-1.4.1-2.1 0-36.1-29.3-65.4-65.4-65.4-36.1 0-65.4 29.3-65.4 65.4 0 7.2 1.2 14.1 3.3 20.6L134.3 441.2c-9.1-4.8-19.5-7.5-30.5-7.5-36.1 0-65.4 29.3-65.4 65.4 0 36.1 29.3 65.4 65.4 65.4 36.1 0 65.4-29.3 65.4-65.4 0-10.8-2.6-21-7.3-29.9l160-137.3c10.9 8.1 24.4 12.9 39 12.9 21.4 0 40.5-10.3 52.4-26.3l139 54.8c-.1 1.2-.1 2.5-.1 3.7 0 36.1 29.3 65.4 65.4 65.4S683 413.1 683 377c0-10.2-2.3-19.8-6.5-28.4L853.2 126c7.8 3.3 16.5 5.2 25.5 5.2 36.1 0 65.4-29.3 65.4-65.4 0-36.2-29.3-65.5-65.4-65.5z"/></svg>