<?xml version="1.0" encoding="utf-8"?>
<!-- Generator: Adobe Illustrator 17.1.0, SVG Export Plug-In . SVG Version: 6.00 Build 0)  -->
<!DOCTYPE svg PUBLIC "-//W3C//DTD SVG 1.1//EN" "http://www.w3.org/Graphics/SVG/1.1/DTD/svg11.dtd">
<svg version="1.1" id="Layer_1" xmlns="http://www.w3.org/2000/svg" xmlns:xlink="http://www.w3.org/1999/xlink" x="0px" y="0px"
	 viewBox="0 0 1000 1000" enable-background="new 0 0 1000 1000" xml:space="preserve">
<polygon points="927.9,954.2 927.9,289.4 772.9,289.4 772.9,954.2 696.3,954.2 696.3,619.8 541.3,619.8 541.3,954.2 443.7,954.2 
	443.7,509.7 288.7,509.7 288.7,954.2 209.8,954.2 209.8,749.9 54.8,749.9 54.8,954.2 0,954.2 0,999.7 1000,999.7 1000,954.2 "/>
<path d="M878.7,0.3c-36.1,0-65.4,29.3-65.4,65.4c0,12.8,3.7,24.7,10,34.8L649.5,319.8c-9.4-5.2-20.2-8.2-31.7-8.2
	c-20.9,0-39.4,9.8-51.4,25l-140-55.1c0-0.7,0.1-1.4,0.1-2.1c0-36.1-29.3-65.4-65.4-65.4c-36.1,0-65.4,29.3-65.4,65.4
	c0,7.2,1.2,14.1,3.3,20.6L134.3,441.2c-9.1-4.8-19.5-7.5-30.5-7.5c-36.1,0-65.4,29.3-65.4,65.4c0,36.1,29.3,65.4,65.4,65.4
	c36.1,0,65.4-29.3,65.4-65.4c0-10.8-2.6-21-7.3-29.9l160-137.3c10.9,8.1,24.4,12.9,39,12.9c21.4,0,40.5-10.3,52.4-26.3l139,54.8
	c-0.1,1.2-0.1,2.5-0.1,3.7c0,36.1,29.3,65.4,65.4,65.4s65.4-29.3,65.4-65.4c0-10.2-2.3-19.8-6.5-28.4L853.2,126
	c7.8,3.3,16.5,5.2,25.5,5.2c36.1,0,65.4-29.3,65.4-65.4C944.1,29.6,914.8,0.3,878.7,0.3z"/>
</svg>
