<svg xmlns="http://www.w3.org/2000/svg" viewBox="0 0 1000 1000"><path fill="#010101" d="M235.1 932.1s14.9 67.9 91.6 67.9h346.7c76.7 0 91.6-67.9 91.6-67.9l68.4-665.5H166.7l68.4 665.5zm398.2-565.4c0-18.4 14.9-33.3 33.3-33.3s33.3 14.9 33.3 33.3l-33.3 500c0 18.4-14.9 33.3-33.3 33.3S600 885.1 600 866.7l33.3-500zm-166.6 0c0-18.4 14.9-33.3 33.3-33.3s33.3 14.9 33.3 33.3v500c0 18.4-14.9 33.3-33.3 33.3s-33.3-14.9-33.3-33.3v-500zm-133.4-33.4c18.4 0 33.3 14.9 33.3 33.3l33.3 500c0 18.4-14.9 33.3-33.3 33.3s-33.3-14.9-33.3-33.3l-33.3-500c0-18.3 14.9-33.3 33.3-33.3zm480-199.9H666.7V66.7C666.7 16.1 650.3 0 600 0H400c-46.1 0-66.7 22.4-66.7 66.7v66.7H186.7c-29.5 0-53.3 22.4-53.3 50 0 27.7 23.9 50 53.3 50h626.7c29.5 0 53.3-22.4 53.3-50s-23.9-50-53.4-50zm-213.3 0H400V66.7h200v66.7z"/></svg>