<svg xmlns="http://www.w3.org/2000/svg" viewBox="0 0 1000 1000"><path d="M100.1 854.1h799.7v-59.7H100.1v59.7zm218-284.3c-28.3 0-51.3 23-51.3 51.3s23 51.3 51.3 51.3c28.3 0 51.3-23 51.3-51.3s-23-51.3-51.3-51.3zm358 0c-28.3 0-51.3 23-51.3 51.3s23 51.3 51.3 51.3c28.3 0 51.3-23 51.3-51.3s-23-51.3-51.3-51.3zm161.8-423.9H162.1v32h675.8v-32zM162.7 387.3h674.7V282.9H162.7v104.4zm777.7-197.4H59.6C26.7 189.9 0 216.7 0 249.5v473.2c0 32.9 26.7 59.6 59.6 59.6h880.8c32.9 0 59.6-26.7 59.6-59.6V249.5c0-32.8-26.7-59.6-59.6-59.6zM320 718.7c-53.5 0-97-43.5-97-97s43.5-97 97-97 97 43.5 97 97c.1 53.5-43.4 97-97 97zm355.8 0c-53.5 0-97-43.5-97-97s43.5-97 97-97 97 43.5 97 97-43.5 97-97 97zm228.5-176.9c-23 0-41.8-18.7-41.8-41.8 0-23 18.7-41.8 41.8-41.8 23 0 41.8 18.7 41.8 41.8 0 23-18.7 41.8-41.8 41.8zm41.8-152.9c0 22.3-18.1 40.4-40.4 40.4H94.3c-22.3 0-40.4-18.1-40.4-40.4V283c0-22.3 18.1-40.4 40.4-40.4h811.4c22.3 0 40.4 18.1 40.4 40.4v105.9z"/></svg>