<svg xmlns="http://www.w3.org/2000/svg" viewBox="0 0 1000 1000"><path d="M896.4 77.2C868.5 28.9 818.5 0 762.6 0h-14.2v77.8h14.2c27.7 0 52.5 14.3 66.4 38.3 13.9 24 13.9 52.7 0 76.7L670 468.3c-13.8 24-38.6 38.3-66.4 38.3-27.7 0-52.5-14.3-66.4-38.3l-159-275.5c-13.9-24-13.9-52.7 0-76.7 13.8-24 38.7-38.3 66.4-38.3h14.2V0h-14.2c-55.9 0-105.9 28.9-133.8 77.3s-27.9 106.1 0 154.5l159 275.5c20.9 36.3 55.1 62.1 94.9 72.3V701c0 122-70.3 221.2-156.6 221.2S251.5 823 251.5 701V553.8c58-17.1 99-71 99-132.3 0-76-61.9-137.9-137.9-137.9s-138 61.9-138 137.9c0 61.3 41 115.2 99 132.3v147.1c0 164.9 105.2 299.1 234.5 299.1s234.5-134.1 234.5-299.1V579.5c39.8-10.2 74-36.1 94.9-72.3l159.1-275.5c27.8-48.3 27.8-106.1-.2-154.5z"/></svg>