<svg version="1.1" id="Layer_1" xmlns="http://www.w3.org/2000/svg" xmlns:xlink="http://www.w3.org/1999/xlink" x="0px" y="0px" style="height: 125px; width: 125px;"
 viewBox="-300 0 1300 1300" enable-background="new 0 0 100 100" >
	<g >
		<g id="Layer_5_95_" >
			<g>
				<path fill="#7BA4DA" d="M946.9,626.7c-56.3,31.1-133.7,59.8-210.8,71.9c-68.7,10.8-197.9-15.2-197.9-45.9
					c0-11.6,113.3,28.6,181.8,10.4c52.6-14,45.1-63.2,16.5-69.7c-28.4-6.5-194.9-67.4-266-69.6c-33.5-1-116.2,11.7-156.2,18.2
					c-13.7,2.2-22.3,2-23.2,15.1c-4,61-11.8,185.7-16.1,250.8c-0.1,1.4,1.8,19.9,17.1,6.9c16.7-14.3,40.2-30.1,61.9-25.1
					c34,7.7,328.4,61.6,369,52.2c58.1-13.5,222.5-110.9,254-141.2C1025.8,653.7,987.9,604.1,946.9,626.7z"/>
				<path fill="#7BA4DA" d="M209.9,539.6L55.7,532c-11.9-0.6-24.1,8.4-27,19.9l-28,254.6c-3,11.5,4.4,21.4,16.3,21.8l170.9,0
					c11.9,0.5,22.4-8.9,23.3-20.8l18.8-245.3C230.8,550.4,221.8,540.2,209.9,539.6z M119.1,794.6c-23.5,0-42.6-19.1-42.6-42.6
					c0-23.6,19.1-42.6,42.6-42.6c23.5,0,42.6,19.1,42.6,42.6C161.8,775.5,142.7,794.6,119.1,794.6z"/>
				<path fill="#7BA4DA" d="M913.6,415.9l11-36.8c6.7-22.4-6.1-45.9-28.5-52.6c-22.4-6.7-46,6.1-52.6,28.5l-10.8,36.2
					c0,0-1.7,8.7-11.5,5.8c-6.7-2-26.9-8-26.9-8s-9.2-1.4-6.5-10.5c3.9-13.2,15.8-52.9,15.8-52.9c6.7-22.4-6.1-46-28.5-52.6
					c-22.4-6.7-46,6.1-52.6,28.5c0,0-11.8,39.7-15.7,52.9c-2.8,9.2-11.8,5.1-11.8,5.1L576.3,324c-8.3-2.5-8.5-15.1-9.1-21.3
					C561.1,239.4,517.6,183,453,163.8c-85-25.3-174.7,23.3-199.9,108.2c-25.3,85,23.3,174.7,108.3,199.9
					c67.5,20.1,138-6.5,176.8-60.9c2-2.8,5.9-8.4,14-6l335,99.7c22.4,6.7,46-6.1,52.6-28.5c5.5-18.4-2.1-37.5-17.4-47.5
					C919,426.6,911.7,422,913.6,415.9z M377.4,417.9c-55.2-16.4-86.7-74.6-70.3-129.8c16.4-55.2,74.6-86.7,129.8-70.3
					s86.7,74.6,70.3,129.8C490.8,402.8,432.6,434.3,377.4,417.9z"/>
			</g>
		</g>
	</g>
</svg>