<svg xmlns="http://www.w3.org/2000/svg" style="height:125px;width:125px" viewBox="-300 0 1300 1300"><path d="M946.9 626.7c-56.3 31.1-133.7 59.8-210.8 71.9-68.7 10.8-197.9-15.2-197.9-45.9 0-11.6 113.3 28.6 181.8 10.4 52.6-14 45.1-63.2 16.5-69.7-28.4-6.5-194.9-67.4-266-69.6-33.5-1-116.2 11.7-156.2 18.2-13.7 2.2-22.3 2-23.2 15.1-4 61-11.8 185.7-16.1 250.8-.1 1.4 1.8 19.9 17.1 6.9 16.7-14.3 40.2-30.1 61.9-25.1 34 7.7 328.4 61.6 369 52.2 58.1-13.5 222.5-110.9 254-141.2 48.8-47 10.9-96.6-30.1-74zm-737-87.1L55.7 532c-11.9-.6-24.1 8.4-27 19.9L.7 806.5c-3 11.5 4.4 21.4 16.3 21.8h170.9c11.9.5 22.4-8.9 23.3-20.8L230 562.2c.8-11.8-8.2-22-20.1-22.6zm-90.8 255c-23.5 0-42.6-19.1-42.6-42.6 0-23.6 19.1-42.6 42.6-42.6s42.6 19.1 42.6 42.6c.1 23.5-19 42.6-42.6 42.6zm794.5-378.7l11-36.8c6.7-22.4-6.1-45.9-28.5-52.6-22.4-6.7-46 6.1-52.6 28.5l-10.8 36.2s-1.7 8.7-11.5 5.8c-6.7-2-26.9-8-26.9-8s-9.2-1.4-6.5-10.5c3.9-13.2 15.8-52.9 15.8-52.9 6.7-22.4-6.1-46-28.5-52.6-22.4-6.7-46 6.1-52.6 28.5 0 0-11.8 39.7-15.7 52.9-2.8 9.2-11.8 5.1-11.8 5.1L576.3 324c-8.3-2.5-8.5-15.1-9.1-21.3-6.1-63.3-49.6-119.7-114.2-138.9-85-25.3-174.7 23.3-199.9 108.2-25.3 85 23.3 174.7 108.3 199.9 67.5 20.1 138-6.5 176.8-60.9 2-2.8 5.9-8.4 14-6l335 99.7c22.4 6.7 46-6.1 52.6-28.5 5.5-18.4-2.1-37.5-17.4-47.5-3.4-2.1-10.7-6.7-8.8-12.8zm-536.2 2c-55.2-16.4-86.7-74.6-70.3-129.8 16.4-55.2 74.6-86.7 129.8-70.3s86.7 74.6 70.3 129.8c-16.4 55.2-74.6 86.7-129.8 70.3z" fill="#7BA4DA"/></svg>