<?xml version="1.0" encoding="utf-8"?>
<!-- Generator: Adobe Illustrator 17.1.0, SVG Export Plug-In . SVG Version: 6.00 Build 0)  -->
<!DOCTYPE svg PUBLIC "-//W3C//DTD SVG 1.1//EN" "http://www.w3.org/Graphics/SVG/1.1/DTD/svg11.dtd">
<svg version="1.1" id="Capa_1" xmlns="http://www.w3.org/2000/svg" xmlns:xlink="http://www.w3.org/1999/xlink" x="0px" y="0px"
	 viewBox="0 0 1000 1000" enable-background="new 0 0 1000 1000" xml:space="preserve">
<path id="XMLID_517_" fill="#7BA4DA" d="M984.4,800.9l-415.5-728c-14.9-26.1-39.5-41.7-65.8-41.8c-26.3-0.1-51,15.3-66,41.3l-421,727.9
	c-19,32.8-21.2,75.6-5.7,111c15.5,35.4,46,57.6,79.3,57.6h820.9c33.2,0,63.7-22,79.2-57.3C1005.2,876.4,1003.1,833.8,984.4,800.9z
	 M500,884.6c-35,0-63.3-33.9-63.3-75.9c0-42,28.3-75.9,63.3-75.9c35,0,63.3,33.9,63.3,75.9C563.3,850.7,535,884.6,500,884.6z
	 M443.7,253.4c14.5-18.9,34.9-29.6,56.3-29.6c21.4,0,41.8,10.7,56.3,29.6c14.5,18.9,21.7,44.2,19.9,69.8l-24.1,344.4
	c-16-8.5-33.6-13.5-52.2-13.5c-18.6,0-36.2,5-52.2,13.5l-24.1-344.4C422,297.5,429.2,272.3,443.7,253.4z"/>
</svg>
