<?xml version="1.0" encoding="utf-8"?>
<!-- Generator: Adobe Illustrator 17.1.0, SVG Export Plug-In . SVG Version: 6.00 Build 0)  -->
<!DOCTYPE svg PUBLIC "-//W3C//DTD SVG 1.1//EN" "http://www.w3.org/Graphics/SVG/1.1/DTD/svg11.dtd">
<svg version="1.1" id="Layer_1" xmlns="http://www.w3.org/2000/svg" xmlns:xlink="http://www.w3.org/1999/xlink" x="0px" y="0px"
	 viewBox="0 0 1000 1000" enable-background="new 0 0 1000 1000" xml:space="preserve">
<g>
	<g>
		<path fill="#7BA4DA" d="M965.6,553.1c22.9-26.2,34.4-57.3,34.4-93.1c0-32.5-11.9-60.6-35.6-84.4C940.7,351.9,912.5,340,880,340
			H706.9c1.7-5.8,3.3-10.8,5-15c1.6-4.2,4-8.8,6.9-13.8c2.9-5,5-8.8,6.2-11.2c7.5-14.2,13.2-25.8,17.2-35c4-9.2,7.9-21.7,11.9-37.5
			c4-15.8,5.9-31.7,5.9-47.5c0-10-0.1-18.1-0.3-24.4c-0.2-6.2-1.3-15.6-3.1-28.1c-1.9-12.5-4.4-22.9-7.5-31.2
			c-3.1-8.3-8.1-17.7-15-28.1c-6.9-10.4-15.2-18.9-25-25.3c-9.8-6.5-22.3-11.9-37.5-16.2C656.4,22.2,639.2,20,620,20
			c-10.8,0-20.2,4-28.1,11.9c-8.3,8.3-15.4,18.7-21.3,31.2c-5.8,12.5-9.9,23.3-12.2,32.5c-2.3,9.2-4.9,21.9-7.8,38.1
			c-3.8,17.5-6.6,30.1-8.4,37.8c-1.9,7.7-5.5,17.8-10.9,30.3c-5.4,12.5-11.9,22.5-19.4,30c-13.7,13.7-34.8,38.7-63.1,75
			c-20.4,26.7-41.5,51.9-63.1,75.6c-21.7,23.8-37.5,36-47.5,36.9c-10.4,0.8-19.4,5.1-26.9,12.8c-7.5,7.7-11.3,16.8-11.3,27.2V860
			c0,10.8,4,20.1,11.9,27.8c7.9,7.7,17.3,11.8,28.1,12.2c14.6,0.4,47.5,9.6,98.8,27.5c32.1,10.8,57.2,19.1,75.3,24.7
			c18.1,5.6,43.5,11.7,75.9,18.1c32.5,6.5,62.5,9.7,90,9.7h10.6h47.5h22.5c55.4-0.8,96.5-17.1,123.1-48.7
			c24.2-28.8,34.4-66.5,30.6-113.1c16.2-15.4,27.5-35,33.7-58.7c7.1-25.4,7.1-49.8,0-73.1c19.2-25.4,28.1-54,26.9-85.6
			C975,587.3,971.9,571.5,965.6,553.1z"/>
		<path fill="#7BA4DA" d="M220,420H40c-10.8,0-20.2,4-28.1,11.9C4,439.8,0,449.2,0,460v400c0,10.8,4,20.2,11.9,28.1
			C19.8,896,29.2,900,40,900h180c10.8,0,20.2-4,28.1-11.9c7.9-7.9,11.9-17.3,11.9-28.1V460c0-10.8-4-20.2-11.9-28.1
			C240.2,424,230.8,420,220,420z M148.1,808.4c-7.9,7.7-17.3,11.6-28.1,11.6c-11.3,0-20.7-3.9-28.4-11.6C83.9,800.7,80,791.3,80,780
			c0-10.8,3.9-20.2,11.6-28.1C99.3,744,108.7,740,120,740c10.8,0,20.2,4,28.1,11.9c7.9,7.9,11.9,17.3,11.9,28.1
			C160,791.3,156.1,800.7,148.1,808.4z"/>
	</g>
</g>
</svg>
