<svg xmlns="http://www.w3.org/2000/svg" viewBox="0 0 1000 1000"><path fill="#7BA4DA" d="M984.4 800.9l-415.5-728c-14.9-26.1-39.5-41.7-65.8-41.8-26.3-.1-51 15.3-66 41.3l-421 727.9c-19 32.8-21.2 75.6-5.7 111 15.5 35.4 46 57.6 79.3 57.6h820.9c33.2 0 63.7-22 79.2-57.3 15.4-35.2 13.3-77.8-5.4-110.7zM500 884.6c-35 0-63.3-33.9-63.3-75.9 0-42 28.3-75.9 63.3-75.9s63.3 33.9 63.3 75.9c0 42-28.3 75.9-63.3 75.9zm-56.3-631.2c14.5-18.9 34.9-29.6 56.3-29.6s41.8 10.7 56.3 29.6c14.5 18.9 21.7 44.2 19.9 69.8l-24.1 344.4c-16-8.5-33.6-13.5-52.2-13.5s-36.2 5-52.2 13.5l-24.1-344.4c-1.6-25.7 5.6-50.9 20.1-69.8z"/></svg>