<svg xmlns="http://www.w3.org/2000/svg" viewBox="0 0 1000 1000"><path fill="#7BA4DA" d="M996.9 445c-1.6-14.1-18-24.6-32.1-24.6-45.8 0-86.5-26.9-103.5-68.5-17.4-42.6-6.2-92.3 28-123.6 10.7-9.8 12.1-26.3 3-37.7-23.5-29.8-50.1-56.7-79.2-80-11.4-9.1-28.1-7.9-38 3.1-29.8 33-83.3 45.3-124.7 28-43-18.1-70.2-61.7-67.5-108.6.9-14.7-9.9-27.5-24.5-29.2-37.3-4.3-75-4.5-112.5-.3-14.5 1.6-25.2 14.1-24.8 28.6 1.6 46.4-25.8 89.2-68.5 106.7-40.9 16.7-94 4.5-123.8-28.2-9.8-10.8-26.3-12.1-37.7-3.2-30 23.5-57.2 50.4-80.9 80-9.2 11.5-7.9 28.1 3 38 34.8 31.5 46 81.6 28 124.8-17.3 41.1-59.9 67.6-108.8 67.6-15.9-.5-27.1 10.1-28.9 24.5-4.5 37.5-4.6 75.8-.4 113.6 1.6 14.1 18.5 24.6 32.8 24.6 43.5-1.1 85.3 25.8 102.9 68.5 17.5 42.6 6.2 92.3-28 123.6-10.7 9.8-12.1 26.2-3 37.7 23.2 29.6 49.9 56.5 79.1 80 11.5 9.2 28.1 7.9 38.1-3 29.9-33.1 83.4-45.3 124.6-28 43.2 18.1 70.3 61.7 67.6 108.5-.9 14.7 9.9 27.5 24.5 29.2 19.1 2.2 38.3 3.3 57.6 3.3 18.3 0 36.6-1 54.9-3 14.5-1.6 25.2-14.1 24.8-28.6-1.7-46.3 25.8-89.2 68.4-106.6 41.1-16.8 94.1-4.5 123.8 28.2 9.9 10.8 26.2 12.1 37.7 3.2 29.9-23.5 57.1-50.4 80.9-80 9.2-11.5 7.9-28.1-3-38-34.8-31.5-46.1-81.7-28-124.7 17-40.6 58.1-67.8 102.3-67.8l6.2.2c14.3 1.2 27.5-9.9 29.3-24.5 4.4-37.7 4.5-76 .3-113.8zM500.8 668.3c-92 0-166.8-74.8-166.8-166.8 0-92 74.8-166.8 166.8-166.8 92 0 166.8 74.8 166.8 166.8 0 92-74.8 166.8-166.8 166.8z"/></svg>