<svg xmlns="http://www.w3.org/2000/svg" viewBox="0 0 1000 1000"><g fill="#060507"><path d="M345.9 463.7h386v77.2h-386z"/><path d="M500.7 849.8H114.3c-21.3 0-38.6-17.3-38.6-38.6V154.9h772.1v325.6c16-7.8 33.5-12.4 51.8-12.4 8.6 0 17.1 1.1 25.4 2.9V116.3C925 52.3 873.1.5 809.2.5H114.3C50.3.5-1.5 52.3-1.5 116.3v694.9c0 63.9 51.9 115.8 115.8 115.8h363.8l22.6-77.2z"/><path d="M345.9 309.3h386v77.2h-386zm0 386.1h273.9l77.6-77.2H345.9M191.5 463.7h77.2v77.2h-77.2zm0-154.4h77.2v77.2h-77.2zm0 308.9h77.2v77.2h-77.2z"/></g><path d="M985.3 615.6l-58.6-58.7c-16.1-16.3-42.2-16.4-58.2-.3l-47 47.4 117 117.5 47.1-47.4c16-16.1 15.9-42.3-.3-58.5zm-394.5 215c-2.6 2.1-4.8 4.7-5.8 8.2l-40.8 139.6c-1.8 6.1-.1 12.6 4.3 17.1 3.3 3.3 7.7 5.1 12.2 5.1 1.6 0 3.3-.2 4.9-.7l139.1-41c3.2-.9 5.8-2.9 7.9-5.3l190.7-189.7-122.1-122.8-190.4 189.5zm18.5 120.3L593 934.4l23.1-79 59.1 12.2 11.7 60.3-77.6 23z" fill="#060507"/></svg>