<?xml version="1.0" encoding="utf-8"?>
<!-- Generator: Adobe Illustrator 17.1.0, SVG Export Plug-In . SVG Version: 6.00 Build 0)  -->
<!DOCTYPE svg PUBLIC "-//W3C//DTD SVG 1.1//EN" "http://www.w3.org/Graphics/SVG/1.1/DTD/svg11.dtd">
<svg version="1.1" id="Layer_1" xmlns="http://www.w3.org/2000/svg" xmlns:xlink="http://www.w3.org/1999/xlink" x="0px" y="0px"
	 viewBox="0 0 1000 1000" enable-background="new 0 0 1000 1000" xml:space="preserve">
<g>
	<g>
		<g>
			<rect x="345.9" y="463.7" fill="#060507" width="386" height="77.2"/>
			<path fill="#060507" d="M500.7,849.8H114.3c-21.3,0-38.6-17.3-38.6-38.6V154.9h772.1v325.6c16-7.8,33.5-12.4,51.8-12.4
				c8.6,0,17.1,1.1,25.4,2.9V116.3c0-64-51.9-115.8-115.8-115.8H114.3C50.3,0.5-1.5,52.3-1.5,116.3v694.9
				c0,63.9,51.9,115.8,115.8,115.8h363.8L500.7,849.8z"/>
			<rect x="345.9" y="309.3" fill="#060507" width="386" height="77.2"/>
			<polygon fill="#060507" points="345.9,695.4 619.8,695.4 697.4,618.2 345.9,618.2 			"/>
			<rect x="191.5" y="463.7" fill="#060507" width="77.2" height="77.2"/>
			<rect x="191.5" y="309.3" fill="#060507" width="77.2" height="77.2"/>
			<rect x="191.5" y="618.2" fill="#060507" width="77.2" height="77.2"/>
		</g>
	</g>
	<g>
		<path fill="#060507" d="M985.3,615.6l-58.6-58.7c-16.1-16.3-42.2-16.4-58.2-0.3L821.5,604l117,117.5l47.1-47.4
			C1001.6,658,1001.5,631.8,985.3,615.6z"/>
		<path fill="#060507" d="M590.8,830.6c-2.6,2.1-4.8,4.7-5.8,8.2l-40.8,139.6c-1.8,6.1-0.1,12.6,4.3,17.1c3.3,3.3,7.7,5.1,12.2,5.1
			c1.6,0,3.3-0.2,4.9-0.7l139.1-41c3.2-0.9,5.8-2.9,7.9-5.3l190.7-189.7L781.2,641.1L590.8,830.6z M609.3,950.9L593,934.4l23.1-79
			l59.1,12.2l11.7,60.3L609.3,950.9z"/>
	</g>
</g>
</svg>
