<?xml version="1.0" encoding="utf-8"?>
<!-- Generator: Adobe Illustrator 17.1.0, SVG Export Plug-In . SVG Version: 6.00 Build 0)  -->
<!DOCTYPE svg PUBLIC "-//W3C//DTD SVG 1.1//EN" "http://www.w3.org/Graphics/SVG/1.1/DTD/svg11.dtd">
<svg version="1.1" id="Layer_1" xmlns="http://www.w3.org/2000/svg" xmlns:xlink="http://www.w3.org/1999/xlink" x="0px" y="0px"
	 viewBox="0 0 1000 1000" enable-background="new 0 0 1000 1000" xml:space="preserve">
<g>
	<g>
		<g>
			<path fill="#010101" d="M631.1,865.7H117.2V134.3H631c11.4,0,20.6-9.2,20.6-20.6v-76c0-11.4-9.2-20.6-20.6-20.6H20.6
				C9.2,17.1,0,26.3,0,37.7v924.6c0,11.4,9.2,20.6,20.6,20.6h610.5c11.4,0,20.6-9.2,20.6-20.6v-76
				C651.7,874.9,642.5,865.7,631.1,865.7z"/>
		</g>
		<g>
			<path fill="#010101" d="M994,485.3L716.3,207.6c-7.7-7.7-21.4-7.7-29.2,0l-65.9,65.9c-8.1,8.1-8.1,21.1,0,29.2l125.4,125.5H203.5
				c-11.4,0-20.6,9.2-20.6,20.6V551c0,11.4,9.2,20.6,20.6,20.6h543.1L621.2,697.1c-8.1,8.1-8.1,21.1,0,29.2l65.9,65.9
				c3.9,3.9,9.1,6,14.6,6s10.7-2.2,14.6-6L994,514.5c3.9-3.9,6-9.1,6-14.6C1000.1,494.4,997.9,489.2,994,485.3z"/>
		</g>
	</g>
</g>
</svg>
