<svg xmlns="http://www.w3.org/2000/svg" viewBox="0 0 1000 1000"><g fill="#7EA2D5"><path d="M641.1 492.1c-15.4 0-27.8 12.4-27.8 27.8 0 15.3 12.4 27.8 27.8 27.8 15.3 0 27.8-12.4 27.8-27.8 0-15.3-12.5-27.8-27.8-27.8zm-111-44.6h-17.7v39.3l18 .1c10.2 0 15.8-9.5 15.8-19.6-.1-10.1-6-19.8-16.1-19.8zM905.5 562c-.6 0-1.1 0-1.4.1v4.1h1.4c1.6 0 2.9-.6 2.9-2.1 0-1-.8-2.1-2.9-2.1z"/><path d="M906.2 557.5c-4.8 0-8.6 4.1-8.6 9.1 0 5.1 3.9 9.1 8.6 9.1 4.8.1 8.6-4 8.6-9.1 0-5-3.9-9.1-8.6-9.1zm2.6 15.3c-.3-.4-.6-1.5-.8-3.1-.3-1.5-1.1-2.1-2.6-2.1H904v5.1h-1.9v-12c1-.1 2-.3 3.4-.3 1.8 0 3 .4 3.7.9.7.5 1.1 1.4 1.1 2.5 0 1.6-1.1 2.5-2.4 2.9v.1c1.1.2 1.8 1.2 2 3 .3 1.9.6 2.6.8 3h-1.9z"/><path d="M845.8 346.1H154.2C69 346.1 0 415.1 0 500.3c0 85.1 69 154.2 154.2 154.2h691.7c85.1 0 154.2-69 154.2-154.2-.1-85.2-69.1-154.2-154.3-154.2zM239.8 573h-34.1v-60.1h-58.1V573h-34.1V421.8h34.1v60.4h58.1v-60.4h34.1V573zm51.8 0h-34.1V465.3h34.1V573zm-17.3-113.4c-10.6 0-19.1-8.6-19.1-19.2s8.6-19.1 19.1-19.1c10.6 0 19.2 8.6 19.2 19.1 0 10.6-8.6 19.2-19.2 19.2zM343.4 573h-34.1V421.8h34.1V573zm51.8 0h-34.1V421.8h34.1V573zm70-51.8H409v-30.7h56.2v30.7zm88.2 51.8l-41.1-56.2V573h-33.5V421.7H540c22.9 0 42 19.6 42 42.6 0 18.3-12.1 37.1-34.3 45.9l45 62.8h-39.3zm87.7 7c-33.2 0-60.1-26.9-60.1-60.1s26.9-60.1 60.1-60.1 60.1 26.9 60.1 60.1-26.9 60.1-60.1 60.1zm245.5-7h-34.4v-67.8c0-11.6-6.9-15.5-18.1-15.5-10 0-18.1 6.8-18.1 15.9V573h-34.4v-67.8c0-9.2-8.1-15.5-18.1-15.5s-18.1 7.9-18.1 17.1V573H711V460.8h34.4v18.6c0-9.8 18.6-19.8 30.6-19.8 16.9 0 29.8 4.5 36.5 17.5 5.6-11.7 24-17.5 36.1-17.5 16.9 0 37.9 6.8 37.9 28.8V573zm19.5 4.4c-5.9 0-10.7-4.7-10.7-10.8 0-6 4.8-10.8 10.7-10.8 5.9 0 10.6 4.8 10.6 10.8.1 6.1-4.6 10.8-10.6 10.8z"/></g></svg>