<?xml version="1.0" encoding="utf-8"?>
<!-- Generator: Adobe Illustrator 17.1.0, SVG Export Plug-In . SVG Version: 6.00 Build 0)  -->
<!DOCTYPE svg PUBLIC "-//W3C//DTD SVG 1.1//EN" "http://www.w3.org/Graphics/SVG/1.1/DTD/svg11.dtd">
<svg version="1.1" id="Layer_1" xmlns="http://www.w3.org/2000/svg" xmlns:xlink="http://www.w3.org/1999/xlink" x="0px" y="0px"
	 viewBox="0 0 1000 1000" enable-background="new 0 0 1000 1000" xml:space="preserve">
<g>
	<path fill="#010101" d="M875,0H125C73.4,0,31.2,42.2,31.2,93.8v812.4c0,51.6,42.2,93.8,93.8,93.8h750c51.6,0,93.8-42.2,93.8-93.8
		V93.8C968.8,42.2,926.6,0,875,0z M843.8,874.9H156.3V125h687.4v749.9H843.8z M281.3,562.4h437.5v62.5H281.3V562.4z M281.3,687.4
		h437.5v62.5H281.3V687.4z M343.8,281.3c0,51.8,42,93.8,93.8,93.8s93.8-42,93.8-93.8s-42-93.8-93.8-93.8S343.8,229.5,343.8,281.3z
		 M500,375H375c-51.6,0-93.8,28.1-93.8,62.5V500h312.5v-62.5C593.8,403.1,551.6,375,500,375z"/>
</g>
</svg>
