<svg xmlns="http://www.w3.org/2000/svg" viewBox="0 0 1000 1000"><path fill="#010101" d="M875 0H125C73.4 0 31.2 42.2 31.2 93.8v812.4c0 51.6 42.2 93.8 93.8 93.8h750c51.6 0 93.8-42.2 93.8-93.8V93.8C968.8 42.2 926.6 0 875 0zm-31.2 874.9H156.3V125h687.4v749.9h.1zM281.3 562.4h437.5v62.5H281.3v-62.5zm0 125h437.5v62.5H281.3v-62.5zm62.5-406.1c0 51.8 42 93.8 93.8 93.8s93.8-42 93.8-93.8-42-93.8-93.8-93.8-93.8 42-93.8 93.8zM500 375H375c-51.6 0-93.8 28.1-93.8 62.5V500h312.5v-62.5c.1-34.4-42.1-62.5-93.7-62.5z"/></svg>