<svg xmlns="http://www.w3.org/2000/svg" viewBox="0 0 1000 1000"><path fill="#010101" d="M631.1 865.7H117.2V134.3H631c11.4 0 20.6-9.2 20.6-20.6v-76c0-11.4-9.2-20.6-20.6-20.6H20.6C9.2 17.1 0 26.3 0 37.7v924.6c0 11.4 9.2 20.6 20.6 20.6h610.5c11.4 0 20.6-9.2 20.6-20.6v-76c0-11.4-9.2-20.6-20.6-20.6z"/><path fill="#010101" d="M994 485.3L716.3 207.6c-7.7-7.7-21.4-7.7-29.2 0l-65.9 65.9c-8.1 8.1-8.1 21.1 0 29.2l125.4 125.5H203.5c-11.4 0-20.6 9.2-20.6 20.6V551c0 11.4 9.2 20.6 20.6 20.6h543.1L621.2 697.1c-8.1 8.1-8.1 21.1 0 29.2l65.9 65.9c3.9 3.9 9.1 6 14.6 6s10.7-2.2 14.6-6L994 514.5c3.9-3.9 6-9.1 6-14.6.1-5.5-2.1-10.7-6-14.6z"/></svg>