<?xml version="1.0" encoding="utf-8"?>
<!-- Generator: Adobe Illustrator 17.1.0, SVG Export Plug-In . SVG Version: 6.00 Build 0)  -->
<!DOCTYPE svg PUBLIC "-//W3C//DTD SVG 1.1//EN" "http://www.w3.org/Graphics/SVG/1.1/DTD/svg11.dtd">
<svg version="1.1" id="Layer_1" xmlns="http://www.w3.org/2000/svg" xmlns:xlink="http://www.w3.org/1999/xlink" x="0px" y="0px"
	 viewBox="0 0 1000 1000" enable-background="new 0 0 1000 1000" xml:space="preserve">
<g>
	<path fill="#7EA2D5" d="M641.1,492.1c-15.4,0-27.8,12.4-27.8,27.8c0,15.3,12.4,27.8,27.8,27.8c15.3,0,27.8-12.4,27.8-27.8
		C668.9,504.6,656.4,492.1,641.1,492.1z"/>
	<path fill="#7EA2D5" d="M530.1,447.5l-17.7,0v39.3l18,0.1c10.2,0,15.8-9.5,15.8-19.6C546.1,457.2,540.2,447.5,530.1,447.5z"/>
	<path fill="#7EA2D5" d="M905.5,562c-0.6,0-1.1,0-1.4,0.1v4.1h1.4c1.6,0,2.9-0.6,2.9-2.1C908.4,563.1,907.6,562,905.5,562z"/>
	<path fill="#7EA2D5" d="M906.2,557.5L906.2,557.5L906.2,557.5c-4.8,0-8.6,4.1-8.6,9.1c0,5.1,3.9,9.1,8.6,9.1c4.8,0.1,8.6-4,8.6-9.1
		C914.8,561.6,910.9,557.5,906.2,557.5z M908.8,572.8c-0.3-0.4-0.6-1.5-0.8-3.1c-0.3-1.5-1.1-2.1-2.6-2.1h-1.4v5.1h-1.9v-12
		c1-0.1,2-0.3,3.4-0.3c1.8,0,3,0.4,3.7,0.9c0.7,0.5,1.1,1.4,1.1,2.5c0,1.6-1.1,2.5-2.4,2.9v0.1c1.1,0.2,1.8,1.2,2,3
		c0.3,1.9,0.6,2.6,0.8,3H908.8z"/>
	<path fill="#7EA2D5" d="M845.8,346.1H154.2C69,346.1,0,415.1,0,500.3c0,85.1,69,154.2,154.2,154.2h691.7
		c85.1,0,154.2-69,154.2-154.2C1000,415.1,931,346.1,845.8,346.1z M239.8,573h-34.1v-60.1h-58.1V573h-34.1V421.8h34.1v60.4h58.1
		v-60.4h34.1V573z M291.6,573h-34.1V465.3h34.1V573z M274.3,459.6c-10.6,0-19.1-8.6-19.1-19.2c0-10.6,8.6-19.1,19.1-19.1
		c10.6,0,19.2,8.6,19.2,19.1C293.5,451,284.9,459.6,274.3,459.6z M343.4,573h-34.1V421.8h34.1V573z M395.2,573h-34.1V421.8h34.1V573
		z M465.2,521.2H409v-30.7h56.2V521.2z M553.4,573l-41.1-56.2V573h-33.5V421.7h32.9h3.8h24.5c22.9,0,42,19.6,42,42.6
		c0,18.3-12.1,37.1-34.3,45.9l45,62.8H553.4z M641.1,580c-33.2,0-60.1-26.9-60.1-60.1c0-33.2,26.9-60.1,60.1-60.1
		c33.2,0,60.1,26.9,60.1,60.1C701.2,553.1,674.3,580,641.1,580z M886.6,573h-34.4v-67.8c0-11.6-6.9-15.5-18.1-15.5
		c-10,0-18.1,6.8-18.1,15.9V573h-34.4v-67.8c0-9.2-8.1-15.5-18.1-15.5s-18.1,7.9-18.1,17.1V573h-34.4V460.8h34.4v18.6
		c0-9.8,18.6-19.8,30.6-19.8c16.9,0,29.8,4.5,36.5,17.5c5.6-11.7,24-17.5,36.1-17.5c16.9,0,37.9,6.8,37.9,28.8h0V573z M906.1,577.4
		c-5.9,0-10.7-4.7-10.7-10.8c0-6,4.8-10.8,10.7-10.8h0c5.9,0,10.6,4.8,10.6,10.8C916.8,572.7,912.1,577.4,906.1,577.4z"/>
</g>
</svg>
