<svg xmlns="http://www.w3.org/2000/svg" viewBox="0 0 1000 1000"><path fill="#010101" d="M998.2 640.8c0-179-204.9-470.3-330.8-470.3-60.1 0-91.7 66.7-108 155.5-9.8-11.1-15.5-19.7-20.7-25.6V72.1C538.7 50 522 32 499.9 32c-22.1 0-38.8 17.9-38.8 40.1v233.4c-5.2 10.4-11.7 19.9-19.7 29-16-91.6-47.4-160.9-108.7-160.9-125.9 0-331 291.3-331 470.2 0 179-23.9 324.1 102 324.1s353.8-145.1 353.8-324.1c0-63.2 0-140.2-5.4-213.6 19.3-13.4 37.1-28.8 52.1-46.6 11.7 12.9 26.2 27.3 43.7 42-5.5 73.9-5.5 151.5-5.5 215.2 0 179 227.9 324.2 353.8 324.2 125.8-.1 102-145.2 102-324.2z"/></svg>