<svg xmlns="http://www.w3.org/2000/svg" viewBox="0 0 1000 1000"><g fill="#010101"><path d="M497.6 277.6h7.2v4.2h-7.2zm0 9h7.2v4.2h-7.2zm0-16.8h7.2v4.2h-7.2z"/><path d="M509.2 279.8v23.6l-4-4v-4.2H498v4l-4.2 4v-23.6s0-14-13.6-.4c0 0-47.8 50-27.8 81.2 2.2 3.8 10 8.2 18-3.6 3.8-5.6 21 5 23.2-13.2V308l7.8-7.8 7.8 7.8v35.4c2.2 18.2 19.4 7.8 23.2 13.2 8 11.8 15.6 7.2 18 3.6 20-31.4-27.8-81.2-27.6-81.2-13.6-13.4-13.6.8-13.6.8z"/><path d="M500 0C224 0 0 224 0 500s224 500 500 500 500-224 500-500S776.2 0 500 0zm146 530.6s-5.6.6-13.4-14.6c0 0 .2 5.8 6.4 22.6 1 3 6.2 19-2 13.4 0 0-3.8-2.6-8.8-19 0 0 2.6 27.6-.4 29-4 2-6-3.6-7.6-27.6 0 0-1.8-7.8-2.6 22 0 1.6-2.4 9.2-5.6 2.6-2.6-5.6-1.6-20-1.6-25 0 0-3.6 18.8-6.6 18.8 0 0-3.6 4.4-2.2-19 .4-3.8-1-11.8-1.2-14l-.4-9s1-10.2 1-14.6c0-1-3.6-15-13.4-29.8 0 0-20-35.8-18.8-59 0 0 .4-22.2-7.8-35 0 0-5.8 63-2 80.8 0 0 18 43.6 14 76-3 24.2-8.6 75.8-14.4 96.2-3 10.6-1.2 37-3.6 43.6-1 3-.6 5.6 1.8 12 8 22.8 7 39-13.4 99.6 0 0-6.4 13.4-3 37.6 0 0 13 26.8 4.6 27.4 0 0-.6 1.6-3.6.4 0 0-4.6 4.6-9.4 2.2 0 0-4.6 3.6-8.4.4 0 0-3.2 3.6-7.8.6 0 0-6 4-9.4-.4 0 0-6.2 1.4 5-27 0 0 4.2-30 6.6-35.8 4.4-11.2 1.2-41.6.2-48.4-1.6-11-.8-29.6 2-44 2-10.4-3.6-30-5.6-42-4.2-25.4-12.6-89.8-11.6-102 0 0-1.6 1.2-4 1.2l-3.4-1.2c1 12-7.2 76.6-11.6 102-2 12-7.6 31.6-5.6 42 2.8 14.4 3.6 33 2 44-1 6.6-4.2 37 .2 48.4 2.2 6 6.6 35.8 6.6 35.8 11.2 28.4 5 27 5 27-3.6 4.4-9.4.4-9.4.4-4.6 2.8-7.8-.6-7.8-.6-4 3.2-8.4-.4-8.4-.4-5 2.4-9.4-2.2-9.4-2.2-2.8 1.6-3.4-.4-3.4-.4-8.4-.6 4.8-27.4 4.8-27.4 3.2-24.2-3-37.6-3-37.6C435 720 434 704 442.2 681c2.2-6.6 3-9.2 1.8-12-2.4-6.6-.6-33.2-3.6-43.6-5.8-20.4-11.6-72-14.4-96.2-4-32.6 14-76 14-76 4-17.8-2-80.8-2-80.8-8 12.6-7.8 35-7.8 35 1.2 23.4-18.8 59-18.8 59-9.6 14.8-13.2 28.8-13.2 29.8 0 4.2 1 14.6 1 14.6l-.4 9c0 2.2-1.6 10.2-1.2 14 1.6 23.4-2.2 19-2.2 19-3.2 0-6.6-18.8-6.6-18.8 0 5 1 19.4-1.6 25-3.2 6.4-5.6-1.2-5.6-2.6-.8-29.8-2.6-22-2.6-22-1.8 24.2-3.8 29.6-7.8 27.6-3-1.4-.2-29-.2-29-5 16.4-8.8 19-8.8 19-8.2 5.6-3.2-10-2-13.4 6.2-16.8 6.2-22.6 6.2-22.6-7.6 15-13.2 14.6-13.2 14.6-7.4-2.4 6.4-23.6 14.6-34 4.2-5.2 9.6-12.2 11-16.2 2.6-7 4.4-29.6 4.4-29.6.8-26.8 7.2-38.2 7.2-38.2 11.2-18 13.4-51.6 13.4-51.6l.6-56.6c4-38.6 32.4-39 32.4-39 28.8-4.2 32.8-13.6 32.8-13.6 6-8.8 2.6-25.6 2.6-25.6-5-4.2-7-15-7-15-8.6-6.6-8-16-4.2-15.8 3 0 2.4-2.6 2.4-2.6-5.2-42.4 32.4-44.6 32.4-44.6h5.8s37.8 2 32.6 44.6c0 0-.8 2.6 2.4 2.6 3.8 0 4.2 9.4-4.2 15.8 0 0-2 11-7 15 0 0-3.6 16.8 2.6 25.6 0 0 4 9.2 32.8 13.6 0 0 28.6.2 32.4 39l.6 56.6s2 33.6 13.4 51.6c0 0 6.6 11.6 7.4 38.2 0 0 2 22.6 4.4 29.6 1.6 4 7 11 11 16.2 9 10.4 23 31.8 16 34z"/></g></svg>