<?xml version="1.0" encoding="utf-8"?>
<!-- Generator: Adobe Illustrator 17.1.0, SVG Export Plug-In . SVG Version: 6.00 Build 0)  -->
<!DOCTYPE svg PUBLIC "-//W3C//DTD SVG 1.1//EN" "http://www.w3.org/Graphics/SVG/1.1/DTD/svg11.dtd">
<svg version="1.1" id="Layer_1" xmlns="http://www.w3.org/2000/svg" xmlns:xlink="http://www.w3.org/1999/xlink" x="0px" y="0px"
	 viewBox="0 0 1000 1000" enable-background="new 0 0 1000 1000" xml:space="preserve">
<g>
	<rect x="497.6" y="277.6" fill="#010101" width="7.2" height="4.2"/>
	<rect x="497.6" y="286.6" fill="#010101" width="7.2" height="4.2"/>
	<rect x="497.6" y="269.8" fill="#010101" width="7.2" height="4.2"/>
	<path fill="#010101" d="M509.2,279.8v23.6l-4-4v-4.2H498v4l-4.2,4v-23.6c0,0,0-14-13.6-0.4c0,0-47.8,50-27.8,81.2
		c2.2,3.8,10,8.2,18-3.6c3.8-5.6,21,5,23.2-13.2V308l7.8-7.8l7.8,7.8v35.4c2.2,18.2,19.4,7.8,23.2,13.2c8,11.8,15.6,7.2,18,3.6
		c20-31.4-27.8-81.2-27.6-81.2C509.2,265.6,509.2,279.8,509.2,279.8z"/>
	<path fill="#010101" d="M500,0C224,0,0,224,0,500s224,500,500,500s500-224,500-500S776.2,0,500,0z M646,530.6
		c0,0-5.6,0.6-13.4-14.6c0,0,0.2,5.8,6.4,22.6c1,3,6.2,19-2,13.4c0,0-3.8-2.6-8.8-19c0,0,2.6,27.6-0.4,29c-4,2-6-3.6-7.6-27.6
		c0,0-1.8-7.8-2.6,22c0,1.6-2.4,9.2-5.6,2.6c-2.6-5.6-1.6-20-1.6-25c0,0-3.6,18.8-6.6,18.8c0,0-3.6,4.4-2.2-19
		c0.4-3.8-1-11.8-1.2-14l-0.4-9c0,0,1-10.2,1-14.6c0-1-3.6-15-13.4-29.8c0,0-20-35.8-18.8-59c0,0,0.4-22.2-7.8-35c0,0-5.8,63-2,80.8
		c0,0,18,43.6,14,76c-3,24.2-8.6,75.8-14.4,96.2c-3,10.6-1.2,37-3.6,43.6c-1,3-0.6,5.6,1.8,12c8,22.8,7,39-13.4,99.6
		c0,0-6.4,13.4-3,37.6c0,0,13,26.8,4.6,27.4c0,0-0.6,1.6-3.6,0.4c0,0-4.6,4.6-9.4,2.2c0,0-4.6,3.6-8.4,0.4c0,0-3.2,3.6-7.8,0.6
		c0,0-6,4-9.4-0.4c0,0-6.2,1.4,5-27c0,0,4.2-30,6.6-35.8c4.4-11.2,1.2-41.6,0.2-48.4c-1.6-11-0.8-29.6,2-44c2-10.4-3.6-30-5.6-42
		c-4.2-25.4-12.6-89.8-11.6-102c0,0-1.6,1.2-4,1.2l-3.4-1.2c1,12-7.2,76.6-11.6,102c-2,12-7.6,31.6-5.6,42c2.8,14.4,3.6,33,2,44
		c-1,6.6-4.2,37,0.2,48.4c2.2,6,6.6,35.8,6.6,35.8c11.2,28.4,5,27,5,27c-3.6,4.4-9.4,0.4-9.4,0.4c-4.6,2.8-7.8-0.6-7.8-0.6
		c-4,3.2-8.4-0.4-8.4-0.4c-5,2.4-9.4-2.2-9.4-2.2c-2.8,1.6-3.4-0.4-3.4-0.4c-8.4-0.6,4.8-27.4,4.8-27.4c3.2-24.2-3-37.6-3-37.6
		C435,720,434,704,442.2,681c2.2-6.6,3-9.2,1.8-12c-2.4-6.6-0.6-33.2-3.6-43.6c-5.8-20.4-11.6-72-14.4-96.2c-4-32.6,14-76,14-76
		c4-17.8-2-80.8-2-80.8c-8,12.6-7.8,35-7.8,35c1.2,23.4-18.8,59-18.8,59c-9.6,14.8-13.2,28.8-13.2,29.8c0,4.2,1,14.6,1,14.6l-0.4,9
		c0,2.2-1.6,10.2-1.2,14c1.6,23.4-2.2,19-2.2,19c-3.2,0-6.6-18.8-6.6-18.8c0,5,1,19.4-1.6,25c-3.2,6.4-5.6-1.2-5.6-2.6
		c-0.8-29.8-2.6-22-2.6-22c-1.8,24.2-3.8,29.6-7.8,27.6c-3-1.4-0.2-29-0.2-29c-5,16.4-8.8,19-8.8,19c-8.2,5.6-3.2-10-2-13.4
		c6.2-16.8,6.2-22.6,6.2-22.6c-7.6,15-13.2,14.6-13.2,14.6c-7.4-2.4,6.4-23.6,14.6-34c4.2-5.2,9.6-12.2,11-16.2
		c2.6-7,4.4-29.6,4.4-29.6c0.8-26.8,7.2-38.2,7.2-38.2c11.2-18,13.4-51.6,13.4-51.6l0.6-56.6c4-38.6,32.4-39,32.4-39
		c28.8-4.2,32.8-13.6,32.8-13.6c6-8.8,2.6-25.6,2.6-25.6c-5-4.2-7-15-7-15c-8.6-6.6-8-16-4.2-15.8c3,0,2.4-2.6,2.4-2.6
		c-5.2-42.4,32.4-44.6,32.4-44.6h5.8c0,0,37.8,2,32.6,44.6c0,0-0.8,2.6,2.4,2.6c3.8,0,4.2,9.4-4.2,15.8c0,0-2,11-7,15
		c0,0-3.6,16.8,2.6,25.6c0,0,4,9.2,32.8,13.6c0,0,28.6,0.2,32.4,39l0.6,56.6c0,0,2,33.6,13.4,51.6c0,0,6.6,11.6,7.4,38.2
		c0,0,2,22.6,4.4,29.6c1.6,4,7,11,11,16.2C639,507,653,528.4,646,530.6z"/>
</g>
</svg>
