<svg xmlns="http://www.w3.org/2000/svg" viewBox="0 0 1000 1000"><path d="M76.7 680.5c9.7-22.5 26.4-38.9 45.1-54.3 11.3-9.4 19.9-22 29.4-33.5 6.4-7.7 11.4-16.6 18.4-23.5 11.9-11.8 23.1-11.2 31.8 2.9 21.5 35 55.1 46.8 93.1 51.5 11.5 1.4 22.7 5.1 34.1 6.9 24 3.7 48 7 72.1 10 2.6.3 5.8-1.9 8.4-3.5 8.5-5.6 16.7-11.5 26.7-18.5 6.2-26.2 19.3-51.9 39-74.7 4.3-4.9 6.4-14 5.5-20.6-1.6-11.5-6.4-22.5-10.6-36.4-6.2 0-15.4-.2-24.6 0-13 .3-22.4-5.7-24.3-18.1-7.7-52.4-31.2-99.1-50.5-147.5-17.4-43.7-7.1-68.6 36.1-87.1 39.5-16.9 77.6-34.7 109.9-64 11.1-10.1 27.3-14.4 41-21.6 20.5-10.8 24.9-23.8 14.8-43.6-22.8-45-12.4-79.6 31.3-104.3h30c26.7 11 38.5 32.9 43.6 59.8 1.8 9.5 4.2 18.8 6.8 30.2-.6 4.9-1.8 12.6-2.2 20.3-1.4 25.6-5.6 31.8-23.5 27.4-15.2-3.8-17.5 5.5-20.1 15-2.8 10.3-11.7 22.3 5.5 29.4 14.6 6 24.5 17.9 24.4 33.1-.2 38.8 22.9 70.4 30.3 106.6 1.8 9 7 12.9 16.7 12 13.8-1.2 27.7-1.1 41.6-1.7 14-.6 24.3-4.6 31.5-19.3 12.7-25.7 31-25.8 46.1-2.4.9 1.4 1.8 2.8 2.8 4.1 18.5 23.3 17 31.4-16.5 44.4-3 1.2-6.6.8-9.8 1.7-18.6 5-37.1 10-55.7 15.2-16 4.5-31.7 10.3-47.9 13.3-19.7 3.6-34.6-5.1-43.5-23.2-4-8-7.5-16.3-12.3-26.9-3.5 9.9-6.7 17-8.4 24.5-8 34.5-16.8 68.9-22.6 103.8-1.8 10.6 2.4 24.3 8.4 33.8 34 53.9 69.5 106.9 104 160.6 4 6.2 5.2 14.4 6.9 21.8 4.1 18.5 5.1 38.1 11.8 55.5 19.2 49.9 33.8 101.5 71.3 143.5 14.7 16.5 27.3 21.7 46 19.4 11.5-1.4 22.7-5.9 34.2-6.9 6.7-.6 13.9 3 20.8 4.7v13.3c-13.9 12.3-26.6 26.3-41.8 36.6-26.4 17.9-54.3 33.5-81.5 50H777c-6.3-16.7-12.5-33.3-18.8-50-1.7-4.4-3-9-5.1-13.2-3.1-6.2-7.7-11.8-9.9-18.3-4.1-12-5.2-25.2-10.6-36.4-9.6-20-21.5-38.8-32.3-58.2-22.8-41.2-43.2-83.9-68.7-123.3-22.8-35.3-51.3-67-78.5-101.9-26 38.9-49.3 73.3-72.1 108-23.8 36.2-36 39.8-78 26.9-30.7-9.4-61.9-17.2-93.3-24-45-9.7-91.4-14.3-135-28.1-24.5-7.8-41.6-4.5-62 6.5-10.4 5.6-23.7 5.9-35.7 8.6-.3-5.2-.3-10.7-.3-16.3zm345.5-395.6c2.8 17.3 5.6 33.6 8.1 50 3.4 21.9 4.9 44.3 10.4 65.6 2.6 10 11.3 19.8 19.8 26.6 8.2 6.5 19.6 8.9 30.2 13.4 7.1-10.3 13.9-20.3 21.5-31.5-17-4.9-17.4-17.2-15.5-29.7 5.8-37.1.8-72.8-12.2-107-20.5 4.2-41 8.3-62.3 12.6z"/></svg>