<?xml version="1.0" encoding="utf-8"?>
<!-- Generator: Adobe Illustrator 17.1.0, SVG Export Plug-In . SVG Version: 6.00 Build 0)  -->
<!DOCTYPE svg PUBLIC "-//W3C//DTD SVG 1.1//EN" "http://www.w3.org/Graphics/SVG/1.1/DTD/svg11.dtd">
<svg version="1.1" id="Layer_1" xmlns="http://www.w3.org/2000/svg" xmlns:xlink="http://www.w3.org/1999/xlink" x="0px" y="0px"
	 viewBox="0 0 1000 1000" enable-background="new 0 0 1000 1000" xml:space="preserve">
<path d="M76.7,680.5c9.7-22.5,26.4-38.9,45.1-54.3c11.3-9.4,19.9-22,29.4-33.5c6.4-7.7,11.4-16.6,18.4-23.5
	c11.9-11.8,23.1-11.2,31.8,2.9c21.5,35,55.1,46.8,93.1,51.5c11.5,1.4,22.7,5.1,34.1,6.9c24,3.7,48,7,72.1,10
	c2.6,0.3,5.8-1.9,8.4-3.5c8.5-5.6,16.7-11.5,26.7-18.5c6.2-26.2,19.3-51.9,39-74.7c4.3-4.9,6.4-14,5.5-20.6
	c-1.6-11.5-6.4-22.5-10.6-36.4c-6.2,0-15.4-0.2-24.6,0c-13,0.3-22.4-5.7-24.3-18.1c-7.7-52.4-31.2-99.1-50.5-147.5
	c-17.4-43.7-7.1-68.6,36.1-87.1c39.5-16.9,77.6-34.7,109.9-64c11.1-10.1,27.3-14.4,41-21.6c20.5-10.8,24.9-23.8,14.8-43.6
	c-22.8-45-12.4-79.6,31.3-104.3c10,0,20,0,30,0c26.7,11,38.5,32.9,43.6,59.8c1.8,9.5,4.2,18.8,6.8,30.2c-0.6,4.9-1.8,12.6-2.2,20.3
	c-1.4,25.6-5.6,31.8-23.5,27.4c-15.2-3.8-17.5,5.5-20.1,15c-2.8,10.3-11.7,22.3,5.5,29.4c14.6,6,24.5,17.9,24.4,33.1
	c-0.2,38.8,22.9,70.4,30.3,106.6c1.8,9,7,12.9,16.7,12c13.8-1.2,27.7-1.1,41.6-1.7c14-0.6,24.3-4.6,31.5-19.3
	c12.7-25.7,31-25.8,46.1-2.4c0.9,1.4,1.8,2.8,2.8,4.1c18.5,23.3,17,31.4-16.5,44.4c-3,1.2-6.6,0.8-9.8,1.7
	c-18.6,5-37.1,10-55.7,15.2c-16,4.5-31.7,10.3-47.9,13.3c-19.7,3.6-34.6-5.1-43.5-23.2c-4-8-7.5-16.3-12.3-26.9
	c-3.5,9.9-6.7,17-8.4,24.5c-8,34.5-16.8,68.9-22.6,103.8c-1.8,10.6,2.4,24.3,8.4,33.8c34,53.9,69.5,106.9,104,160.6
	c4,6.2,5.2,14.4,6.9,21.8c4.1,18.5,5.1,38.1,11.8,55.5c19.2,49.9,33.8,101.5,71.3,143.5c14.7,16.5,27.3,21.7,46,19.4
	c11.5-1.4,22.7-5.9,34.2-6.9c6.7-0.6,13.9,3,20.8,4.7c0,4.4,0,8.9,0,13.3c-13.9,12.3-26.6,26.3-41.8,36.6
	c-26.4,17.9-54.3,33.5-81.5,50c-7.8,0-15.6,0-23.3,0c-6.3-16.7-12.5-33.3-18.8-50c-1.7-4.4-3-9-5.1-13.2c-3.1-6.2-7.7-11.8-9.9-18.3
	c-4.1-12-5.2-25.2-10.6-36.4c-9.6-20-21.5-38.8-32.3-58.2c-22.8-41.2-43.2-83.9-68.7-123.3c-22.8-35.3-51.3-67-78.5-101.9
	c-26,38.9-49.3,73.3-72.1,108c-23.8,36.2-36,39.8-78,26.9c-30.7-9.4-61.9-17.2-93.3-24c-45-9.7-91.4-14.3-135-28.1
	c-24.5-7.8-41.6-4.5-62,6.5c-10.4,5.6-23.7,5.9-35.7,8.6C76.7,691.6,76.7,686.1,76.7,680.5z M422.2,284.9c2.8,17.3,5.6,33.6,8.1,50
	c3.4,21.9,4.9,44.3,10.4,65.6c2.6,10,11.3,19.8,19.8,26.6c8.2,6.5,19.6,8.9,30.2,13.4c7.1-10.3,13.9-20.3,21.5-31.5
	c-17-4.9-17.4-17.2-15.5-29.7c5.8-37.1,0.8-72.8-12.2-107C464,276.5,443.5,280.6,422.2,284.9z"/>
</svg>
