<?xml version="1.0" encoding="utf-8"?>
<!-- Generator: Adobe Illustrator 17.1.0, SVG Export Plug-In . SVG Version: 6.00 Build 0)  -->
<!DOCTYPE svg PUBLIC "-//W3C//DTD SVG 1.1//EN" "http://www.w3.org/Graphics/SVG/1.1/DTD/svg11.dtd">
<svg version="1.1" id="Layer_1" xmlns="http://www.w3.org/2000/svg" xmlns:xlink="http://www.w3.org/1999/xlink" x="0px" y="0px"
	 viewBox="0 0 800 1280" enable-background="new 0 0 800 1280" xml:space="preserve">
<g>
	<g>
		<path d="M586.6,634.5c-5.9-7.4-13.5-17.4-15.7-23.1c-3.6-10-6.3-42-6.3-42c-1.1-37.9-10.4-54.3-10.4-54.3
			c-16-25.6-19-73.3-19-73.3l-0.7-80.6c-5.5-55-46.2-55.4-46.2-55.4c-41-6.2-46.6-19.3-46.6-19.3c-8.7-12.5-3.7-36.4-3.7-36.4
			c7.2-5.9,10-21.4,10-21.4c11.9-9.1,11.4-22.6,6-22.4c-4.5,0.1-3.5-3.5-3.5-3.5c7.5-60.4-46.2-63.4-46.2-63.4H396
			c0,0-53.6,3.1-46.2,63.4c0,0,1,3.6-3.5,3.5c-5.5-0.2-6.1,13.3,5.9,22.4c0,0,2.7,15.6,10,21.4c0,0,4.9,24-3.7,36.4
			c0,0-5.7,13.2-46.6,19.3c0,0-40.6,0.4-46.2,55.4l-0.7,80.6c0,0-3,47.8-19,73.3c0,0-9.2,16.4-10.4,54.3c0,0-2.7,32-6.3,42
			c-2.2,5.9-9.8,15.8-15.7,23.1c-11.7,14.6-31.3,44.9-20.8,48.3c0,0,8.1,0.8,18.9-20.6c0,0-0.2,8.2-8.9,32.1
			c-1.7,4.5-8.9,27.1,2.8,19c0,0,5.4-3.7,12.5-27.1c0,0-3.8,39.2,0.4,41.2c5.5,2.7,8.6-5,11-39.5c0,0,2.5-11.1,3.7,31.3
			c0.1,2.1,3.3,13,7.8,3.8c3.7-7.8,2.1-28.5,2.1-35.4c0,0,4.9,26.8,9.3,26.8c0,0,5.3,6.3,3.2-27c-0.4-5.4,1.5-16.6,1.7-19.9
			l0.5-12.8c0,0-1.3-14.6-1.3-20.6c0-1.5,5.2-21.4,19-42.4c0,0,28.6-50.8,26.8-84c0,0-0.4-31.7,11.1-49.7c0,0,8.2,89.8,2.7,115
			c0,0-25.8,61.9-20.1,108.1c4.2,34.3,12.3,107.8,20.5,136.8c4.2,15,1.7,52.8,5.2,62.3c1.5,4.1,0.7,7.8-2.6,17.2
			c-11.6,32.5-10.1,55.4,19,141.8c0,0,8.9,19.1,4.4,53.5c0,0-18.6,38.2-6.6,39c0,0,1,2.5,4.9,0.5c0,0,6.4,6.6,13.4,3.1
			c0,0,6.4,5.1,11.9,0.6c0,0,4.5,5,10.9,1c0,0,8.4,5.6,13.4-0.5c0,0,9,2.1-7-38.2c0,0-6.1-42.6-9.4-50.9c-6.4-16-1.9-59.4-0.5-68.7
			c2.2-15.5,1-42.1-3-62.7c-2.9-14.7,5-42.5,7.9-59.6c6.1-36,17.8-127.9,16.4-145.2l4.9,1.7c3.5,0,5.8-1.7,5.8-1.7
			c-1.5,17.4,10.3,109.2,16.4,145.2c2.9,17.1,10.8,44.9,7.9,59.6c-4,20.5-5.2,47.1-3,62.7c1.4,9.4,5.9,52.8-0.5,68.7
			c-3.3,8.3-9.4,50.9-9.4,50.9c-15.9,40.2-7,38.2-7,38.2c5,6.1,13.4,0.5,13.4,0.5c6.4,4,11-1,11-1c5.5,4.6,11.9-0.6,11.9-0.6
			c7,3.6,13.4-3.1,13.4-3.1c4,2.1,4.9-0.5,4.9-0.5c11.9-0.8-6.6-39-6.6-39c-4.5-34.4,4.4-53.5,4.4-53.5
			c29.1-86.3,30.6-109.2,19-141.8c-3.4-9.3-4.1-13.1-2.6-17.2c3.5-9.4,0.9-47.3,5.2-62.3c8.2-29,16.3-102.5,20.5-136.8
			c5.7-46.2-20.1-108.1-20.1-108.1c-5.5-25.2,2.7-115,2.7-115c11.5,18,11.1,49.7,11.1,49.7c-1.9,33.2,26.8,84,26.8,84
			c13.8,21,19,41,19,42.4c0,6.1-1.3,20.6-1.3,20.6l0.5,12.8c0.2,3.3,2.1,14.5,1.7,19.9c-2.1,33.1,3.2,27,3.2,27
			c4.5,0,9.3-26.8,9.3-26.8c0,6.9-1.7,27.6,2.1,35.4c4.5,9.2,7.7-1.6,7.8-3.8c1.2-42.4,3.7-31.3,3.7-31.3
			c2.4,34.4,5.5,42.1,10.9,39.5c4.2-2,0.4-41.2,0.4-41.2c7.1,23.2,12.5,27.1,12.5,27.1c11.7,8.1,4.4-14.5,2.8-19
			c-8.7-23.9-8.9-32.1-8.9-32.1c10.8,21.4,18.9,20.6,18.9,20.6C617.9,679.4,598.1,649.1,586.6,634.5z M397,311.5h10.4v6H397V311.5z
			 M397,323.4h10.4v5.9H397V323.4z M397,335.3h10.4v5.9H397V335.3z M472,440.5c-3.4,5.2-14.3,11.7-25.8-5.1
			c-5.4-7.8-29.8,7.1-33-18.7v-50.5l-11.1-11l-11,11v50.5c-3.2,25.8-27.6,10.9-33,18.7c-11.6,16.8-22.5,10.4-25.8,5.1
			c-28.5-44.6,39.4-115.6,39.4-115.6c19.4-19.4,19.4,0.6,19.4,0.6v33.4l5.9-5.9v-5.9h10.4v5.9l5.9,5.9v-33.4c0,0,0-20,19.4-0.6
			C432.6,324.9,500.5,395.9,472,440.5z"/>
	</g>
</g>
</svg>
