<?xml version="1.0" encoding="utf-8"?>
<!-- Generator: Adobe Illustrator 17.1.0, SVG Export Plug-In . SVG Version: 6.00 Build 0)  -->
<!DOCTYPE svg PUBLIC "-//W3C//DTD SVG 1.1//EN" "http://www.w3.org/Graphics/SVG/1.1/DTD/svg11.dtd">
<svg version="1.1" id="Layer_1" xmlns="http://www.w3.org/2000/svg" xmlns:xlink="http://www.w3.org/1999/xlink" x="0px" y="0px"
	 viewBox="0 0 1000 1000" enable-background="new 0 0 1000 1000" xml:space="preserve">
<g>
	<path fill="#010101" d="M623.7,702.2c-24.7-4.1-25.2-74.4-25.2-74.4s72.5-74.4,88.3-174.5c42.5,0,68.8-106.4,26.3-143.9
		C714.8,270,767.7,0,500,0C232.3,0,285.2,270,287,309.4c-42.5,37.4-16.3,143.9,26.3,143.9c15.8,100.1,88.3,174.5,88.3,174.5
		s-0.6,70.4-25.2,74.4C296.8,715.4,0,851.1,0,1000h500h500C1000,851.1,703.2,715.4,623.7,702.2z"/>
</g>
</svg>
