<?xml version="1.0" encoding="utf-8"?>
<!-- Generator: Adobe Illustrator 17.1.0, SVG Export Plug-In . SVG Version: 6.00 Build 0)  -->
<!DOCTYPE svg PUBLIC "-//W3C//DTD SVG 1.1//EN" "http://www.w3.org/Graphics/SVG/1.1/DTD/svg11.dtd">
<svg version="1.1" id="Layer_1" xmlns="http://www.w3.org/2000/svg" xmlns:xlink="http://www.w3.org/1999/xlink" x="0px" y="0px"
	 viewBox="0 0 1000 1000" enable-background="new 0 0 1000 1000" xml:space="preserve">
<g>
	<path fill="#010101" d="M682,652.7c62.3-69.2,101.3-161.9,101.3-264C783.3,174.8,613.4,0,404,0S24.8,174.8,24.8,388.9
		s169.9,388.9,379.3,388.9c85.3,0,163.6-28.8,227.1-77.4l282,289.1c6.8,7.1,15.5,10.6,24,10.6c8.6,0,17.8-3.5,24.1-10.6
		c13.2-13.5,13.2-35.8,0-49.8L682,652.7z M93.4,388.9c0-175.4,139-318.5,310.6-318.5c171.1,0,310.6,142.5,310.6,318.5
		S575.6,707.3,404,707.3S93.4,564.1,93.4,388.9z"/>
</g>
</svg>
