<svg xmlns="http://www.w3.org/2000/svg" viewBox="0 0 1000 1000"><path d="M762.5 550h-525c-10.2 0-18.9 4.9-26.4 14.8-7.4 9.9-11.1 21.6-11.1 35.2s3.7 25.3 11.1 35.2l262.5 350c7.4 9.9 16.2 14.9 26.4 14.9s18.9-5 26.4-14.9l262.5-350c7.4-9.9 11.1-21.6 11.1-35.2 0-13.5-3.7-25.3-11.1-35.2-7.5-9.9-16.2-14.8-26.4-14.8zm-525-100h525c10.2 0 18.9-4.9 26.4-14.8 7.4-9.9 11.1-21.6 11.1-35.2 0-13.5-3.7-25.3-11.1-35.2l-262.5-350C518.9 5 510.2 0 500 0s-18.9 5-26.4 14.9l-262.5 350c-7.4 9.9-11.1 21.6-11.1 35.2 0 13.5 3.7 25.3 11.1 35.2 7.5 9.8 16.2 14.7 26.4 14.7z" fill="#010101"/></svg>