<?xml version="1.0" encoding="utf-8"?>
<!-- Generator: Adobe Illustrator 17.1.0, SVG Export Plug-In . SVG Version: 6.00 Build 0)  -->
<!DOCTYPE svg PUBLIC "-//W3C//DTD SVG 1.1//EN" "http://www.w3.org/Graphics/SVG/1.1/DTD/svg11.dtd">
<svg version="1.1" id="Layer_1" xmlns="http://www.w3.org/2000/svg" xmlns:xlink="http://www.w3.org/1999/xlink" x="0px" y="0px"
	 viewBox="0 0 1000 1000" enable-background="new 0 0 1000 1000" xml:space="preserve">
<g>
	<path fill="#010101" d="M762.5,550h-525c-10.2,0-18.9,4.9-26.4,14.8c-7.4,9.9-11.1,21.6-11.1,35.2s3.7,25.3,11.1,35.2l262.5,350
		c7.4,9.9,16.2,14.9,26.4,14.9c10.2,0,18.9-5,26.4-14.9l262.5-350c7.4-9.9,11.1-21.6,11.1-35.2c0-13.5-3.7-25.3-11.1-35.2
		C781.4,554.9,772.7,550,762.5,550z"/>
	<path fill="#010101" d="M237.5,450h525c10.2,0,18.9-4.9,26.4-14.8c7.4-9.9,11.1-21.6,11.1-35.2c0-13.5-3.7-25.3-11.1-35.2
		l-262.5-350C518.9,5,510.2,0,500,0c-10.2,0-18.9,5-26.4,14.9l-262.5,350c-7.4,9.9-11.1,21.6-11.1,35.2c0,13.5,3.7,25.3,11.1,35.2
		C218.6,445.1,227.3,450,237.5,450z"/>
</g>
</svg>
