<svg xmlns="http://www.w3.org/2000/svg" viewBox="0 0 1000 1000"><path fill="#010101" d="M500 0C223.9 0 0 223.9 0 500s223.9 500 500 500 500-223.9 500-500S776.2 0 500 0zm34.5 288.4c13-8.8 28.2-13.5 43.9-13.5 26 0 50.2 12.9 64.8 34.3l4.1 6c24.2 35.7 15 84.5-20.7 108.8l-88.9 60.4-92-135.4 88.8-60.6zM386.1 571.3c-26 0-50.2-12.9-64.8-34.3l-4.1-6c-11.8-17.2-16.1-38-12.2-58.6 3.9-20.6 15.6-38.3 32.9-50.1l88.9-60.4 92.1 135.5-88.9 60.4c-13 8.8-28.2 13.5-43.9 13.5zm194.4 153.8c-52.7-5.6-93.6-49.6-93.2-102.4.4-52.1 41.3-95.2 93.2-100.7v203.1zm22.8 0V521.9c52.7 5.7 93.7 49.6 93.2 102.5-.4 52-41.3 95.2-93.2 100.7z"/></svg>