<?xml version="1.0" encoding="utf-8"?>
<!-- Generator: Adobe Illustrator 17.1.0, SVG Export Plug-In . SVG Version: 6.00 Build 0)  -->
<!DOCTYPE svg PUBLIC "-//W3C//DTD SVG 1.1//EN" "http://www.w3.org/Graphics/SVG/1.1/DTD/svg11.dtd">
<svg version="1.1" id="Layer_1" xmlns="http://www.w3.org/2000/svg" xmlns:xlink="http://www.w3.org/1999/xlink" x="0px" y="0px"
	 viewBox="0 0 1000 1000" enable-background="new 0 0 1000 1000" xml:space="preserve">
<path fill="#010101" d="M500,0C223.9,0,0,223.9,0,500s223.9,500,500,500s500-223.9,500-500S776.2,0,500,0z M534.5,288.4
	c13-8.8,28.2-13.5,43.9-13.5c26,0,50.2,12.9,64.8,34.3l4.1,6c24.2,35.7,15,84.5-20.7,108.8l-88.9,60.4l-92-135.4L534.5,288.4z
	 M386.1,571.3c-26,0-50.2-12.9-64.8-34.3l-4.1-6c-11.8-17.2-16.1-38-12.2-58.6c3.9-20.6,15.6-38.3,32.9-50.1l88.9-60.4l92.1,135.5
	L430,557.8C417,566.6,401.8,571.3,386.1,571.3z M580.5,725.1c-52.7-5.6-93.6-49.6-93.2-102.4c0.4-52.1,41.3-95.2,93.2-100.7V725.1z
	 M603.3,725.1V521.9c52.7,5.7,93.7,49.6,93.2,102.5C696.1,676.4,655.2,719.6,603.3,725.1z"/>
</svg>
