<?xml version="1.0" encoding="utf-8"?>
<!-- Generator: Adobe Illustrator 17.1.0, SVG Export Plug-In . SVG Version: 6.00 Build 0)  -->
<!DOCTYPE svg PUBLIC "-//W3C//DTD SVG 1.1//EN" "http://www.w3.org/Graphics/SVG/1.1/DTD/svg11.dtd">
<svg version="1.1" id="Layer_1" xmlns="http://www.w3.org/2000/svg" xmlns:xlink="http://www.w3.org/1999/xlink" x="0px" y="0px"
	 viewBox="0 0 1000 1000" enable-background="new 0 0 1000 1000" xml:space="preserve">
<path d="M653,528.4c96.3,0,174.3-78,174.3-174.3s-78-174.3-174.3-174.3s-174.3,78-174.3,174.3S556.7,528.4,653,528.4z M726.9,540.3
	H579c-123,0-223.1,100.1-223.1,223.2v180.9l0.5,2.8l12.5,3.9c117.4,36.7,219.4,48.9,303.4,48.9c164,0,259.1-46.8,264.9-49.7
	l11.6-5.9h1.2V763.5C950,640.4,849.9,540.3,726.9,540.3z M347.1,348.5c34.1,0,65.8-10,92.7-26.9c8.5-55.7,38.4-104.4,81.1-137.6
	c0.2-3.3,0.5-6.5,0.5-9.8C521.4,78,443.4,0,347.1,0c-96.3,0-174.3,78-174.3,174.3C172.9,270.5,250.9,348.5,347.1,348.5z M503.7,510
	c-39.4-37.8-64.4-90.4-66.2-148.8c-5.4-0.4-10.8-0.8-16.4-0.8H273.2C150.1,360.4,50,460.5,50,583.5v180.9l0.5,2.8l12.5,3.9
	c94.2,29.4,178.3,43,251.3,47.2v-54.6C314.3,644,394.3,542.6,503.7,510z"/>
</svg>
