<svg xmlns="http://www.w3.org/2000/svg" viewBox="0 0 1000 1000"><path d="M653 528.4c96.3 0 174.3-78 174.3-174.3s-78-174.3-174.3-174.3-174.3 78-174.3 174.3 78 174.3 174.3 174.3zm73.9 11.9H579c-123 0-223.1 100.1-223.1 223.2v180.9l.5 2.8 12.5 3.9c117.4 36.7 219.4 48.9 303.4 48.9 164 0 259.1-46.8 264.9-49.7l11.6-5.9h1.2V763.5c0-123.1-100.1-223.2-223.1-223.2zM347.1 348.5c34.1 0 65.8-10 92.7-26.9 8.5-55.7 38.4-104.4 81.1-137.6.2-3.3.5-6.5.5-9.8C521.4 78 443.4 0 347.1 0c-96.3 0-174.3 78-174.3 174.3.1 96.2 78.1 174.2 174.3 174.2zM503.7 510c-39.4-37.8-64.4-90.4-66.2-148.8-5.4-.4-10.8-.8-16.4-.8H273.2C150.1 360.4 50 460.5 50 583.5v180.9l.5 2.8 12.5 3.9c94.2 29.4 178.3 43 251.3 47.2v-54.6c0-119.7 80-221.1 189.4-253.7z"/></svg>